<svg xmlns:dc="http://purl.org/dc/elements/1.1/" xmlns:cc="http://creativecommons.org/ns#" xmlns:rdf="http://www.w3.org/1999/02/22-rdf-syntax-ns#" xmlns:svg="http://www.w3.org/2000/svg" xmlns="http://www.w3.org/2000/svg" xmlns:xlink="http://www.w3.org/1999/xlink" id="svg333721" viewBox="0 0 1024 768" height="768px" width="1024px" version="1.1">
  <metadata id="metadata333727">
    <rdf:rdf>
      <cc:work rdf:about="">
        <dc:format>image/svg+xml</dc:format>
        <dc:type rdf:resource="http://purl.org/dc/dcmitype/StillImage"></dc:type>
      </cc:work>
    </rdf:rdf>
  </metadata>
  <defs id="defs333725"></defs>
  <linearGradient spreadMethod="pad" y2="30%" x2="-10%" y1="120%" x1="30%" id="3d_gradient2-logo-758dd56f-6497-4eee-b247-fe8ebb854230">
    <stop id="stop333702" stop-opacity="1" stop-color="#ffffff" offset="0%"></stop>
    <stop id="stop333704" stop-opacity="1" stop-color="#000000" offset="100%"></stop>
  </linearGradient>
  <linearGradient gradientTransform="rotate(-30)" spreadMethod="pad" y2="30%" x2="-10%" y1="120%" x1="30%" id="3d_gradient3-logo-758dd56f-6497-4eee-b247-fe8ebb854230">
    <stop id="stop333707" stop-opacity="1" stop-color="#ffffff" offset="0%"></stop>
    <stop id="stop333709" stop-opacity="1" stop-color="#cccccc" offset="50%"></stop>
    <stop id="stop333711" stop-opacity="1" stop-color="#000000" offset="100%"></stop>
  </linearGradient>
  <g id="logo-group">
    <image xlink:href="" id="container" x="272" y="144" width="480" height="480" style="display: none;" transform="translate(0 0)"></image>
    <g id="logo-center" transform="translate(0 0)">
      <image xlink:href="" id="icon_container" x="0" y="0" style="display: none;"></image>
      <g id="slogan" style="font-style:oblique;font-weight:normal;font-size:32px;line-height:1;font-family:Lora;font-variant-ligatures:none;text-align:center;text-anchor:middle" transform="translate(0 0)">
        <path id="path333729" style="font-style:oblique;font-weight:normal;font-size:32px;line-height:1;font-family:Lora;font-variant-ligatures:none;text-align:center;text-anchor:middle" d="m 420.68175,-22.912 q 1.408,0 2.848,0.384 1.472,0.352 2.624,1.248 l -0.064,-1.376 h 1.632 l -0.352,7.04 h -1.152 q -0.032,-2.528 -1.408,-4.256 -1.376,-1.76 -4,-1.76 -1.984,0 -3.168,1.184 -1.184,1.152 -1.184,2.816 0,1.216 0.704,2.112 0.704,0.864 1.728,1.472 1.024,0.608 2.816,1.44 2.048,0.928 3.328,1.728 1.28,0.768 2.144,1.984 0.896,1.216 0.896,2.976 0,1.888 -0.928,3.36 -0.928,1.44 -2.688,2.272 -1.76,0.8 -4.192,0.8 -1.472,0 -3.008,-0.32 -1.504,-0.32 -2.592,-1.056 l 0.096,1.12 h -1.664 l 0.16,-6.816 h 1.248 q 0.032,2.848 1.664,4.288 1.632,1.44 4.32,1.44 2.048,0 3.456,-1.12 1.44,-1.12 1.44,-3.104 0,-1.344 -0.736,-2.304 -0.736,-0.96 -1.792,-1.6 -1.056,-0.64 -2.912,-1.536 -1.984,-0.928 -3.2,-1.664 -1.184,-0.736 -2.016,-1.888 -0.832,-1.152 -0.832,-2.816 0,-1.28 0.608,-2.656 0.608,-1.408 2.112,-2.4 1.536,-0.992 4.064,-0.992 z" stroke-width="0" stroke-linejoin="miter" stroke-miterlimit="2" fill="#fcfcfc" stroke="#fcfcfc" transform="translate(5.684341886080802e-14 381.304765625) translate(373.385625 45.519999999999996) scale(1.25) translate(-413.09775 22.912)"></path>
        <path id="path333731" style="font-style:oblique;font-weight:normal;font-size:32px;line-height:1;font-family:Lora;font-variant-ligatures:none;text-align:center;text-anchor:middle" d="m 438.61475,-16.352 q 1.344,0 2.432,0.512 1.12,0.48 1.728,1.344 0.64,0.832 0.64,1.888 0,0.736 -0.384,1.152 -0.384,0.416 -1.024,0.416 -0.64,0 -0.992,-0.416 -0.32,-0.416 -0.32,-0.864 0,-0.768 0.416,-1.216 -0.16,-0.864 -0.864,-1.28 -0.672,-0.416 -1.664,-0.416 -2.528,0 -3.68,2.368 -1.12,2.368 -1.12,5.472 0,3.2 1.024,4.704 1.056,1.472 2.88,1.472 1.408,0 2.72,-0.928 1.312,-0.96 2.176,-3.104 l 1.12,0.544 q -1.152,2.656 -2.848,3.872 -1.696,1.184 -3.712,1.184 -2.912,0 -4.544,-1.728 -1.632,-1.76 -1.632,-5.28 0,-2.24 0.832,-4.48 0.864,-2.24 2.592,-3.712 1.728,-1.504 4.224,-1.504 z" stroke-width="0" stroke-linejoin="miter" stroke-miterlimit="2" fill="#fcfcfc" stroke="#fcfcfc" transform="translate(5.684341886080802e-14 381.304765625) translate(398.221875 53.72) scale(1.25) translate(-430.96675 16.352)"></path>
        <path id="path333733" style="font-style:oblique;font-weight:normal;font-size:32px;line-height:1;font-family:Lora;font-variant-ligatures:none;text-align:center;text-anchor:middle" d="m 457.22775,-16.352 q 0.992,0 1.6,0.512 0.64,0.48 0.64,1.344 0,0.608 -0.416,1.088 -0.416,0.448 -1.056,0.448 -0.576,0 -0.992,-0.352 -0.416,-0.352 -0.48,-0.992 -0.128,-0.032 -0.352,-0.032 -1.344,0 -2.624,2.144 -1.28,2.144 -2.08,5.216 -0.8,3.072 -0.8,5.6 0,0.288 0.064,1.376 h -2.656 q -0.032,-0.288 -0.032,-0.832 0,-1.952 0.512,-6.56 l 0.416,-3.712 q 0.192,-1.664 0.192,-2.208 0,-0.672 -0.192,-1.056 -0.16,-0.384 -0.672,-0.384 -0.608,0 -1.248,0.768 -0.64,0.768 -1.088,2.336 l -0.896,-0.192 q 0.16,-0.896 0.672,-1.952 0.544,-1.056 1.408,-1.792 0.896,-0.768 2.08,-0.768 1.248,0 1.792,0.8 0.544,0.8 0.544,2.304 0,1.472 -0.48,3.872 h 0.096 q 1.312,-3.872 2.816,-5.408 1.504,-1.568 3.232,-1.568 z" stroke-width="0" stroke-linejoin="miter" stroke-miterlimit="2" fill="#fcfcfc" stroke="#fcfcfc" transform="translate(5.684341886080802e-14 381.304765625) translate(418.34812500000004 53.72) scale(1.25) translate(-445.06775 16.352)"></path>
        <path id="path333735" style="font-style:oblique;font-weight:normal;font-size:32px;line-height:1;font-family:Lora;font-variant-ligatures:none;text-align:center;text-anchor:middle" d="m 468.24575,-16.352 q 1.728,0 3.104,0.832 1.408,0.832 2.176,2.432 0.8,1.568 0.8,3.744 0,2.624 -0.96,4.832 -0.928,2.208 -2.72,3.552 -1.76,1.312 -4.16,1.312 -3.04,0 -4.608,-1.984 -1.536,-2.016 -1.536,-5.184 0,-2.624 0.96,-4.8 0.96,-2.176 2.752,-3.456 1.792,-1.28 4.192,-1.28 z m -0.512,1.184 q -1.408,0 -2.464,1.024 -1.024,0.992 -1.568,2.752 -0.544,1.728 -0.544,3.872 0,2.656 0.864,4.672 0.864,1.984 2.816,1.984 1.632,0 2.656,-1.248 1.056,-1.248 1.536,-3.072 0.48,-1.824 0.48,-3.552 0,-2.688 -0.864,-4.544 -0.832,-1.888 -2.912,-1.888 z" stroke-width="0" stroke-linejoin="miter" stroke-miterlimit="2" fill="#fcfcfc" stroke="#fcfcfc" transform="translate(5.684341886080802e-14 381.304765625) translate(439.94062500000007 53.72) scale(1.25) translate(-460.34175 16.352)"></path>
        <path id="path333737" style="font-style:oblique;font-weight:normal;font-size:32px;line-height:1;font-family:Lora;font-variant-ligatures:none;text-align:center;text-anchor:middle" d="m 482.27725,-21.888 q -0.384,2.24 -0.48,3.168 -0.512,3.744 -0.992,8.704 -0.448,4.928 -0.448,7.104 0,0.8 0.16,1.248 0.16,0.416 0.704,0.416 0.608,0 1.248,-0.736 0.64,-0.768 1.088,-2.368 l 0.896,0.224 q -0.16,0.896 -0.672,1.952 -0.512,1.024 -1.408,1.792 -0.864,0.736 -2.048,0.736 -1.344,0 -1.952,-0.704 -0.608,-0.704 -0.608,-2.144 0,-2.112 0.544,-7.776 0.576,-5.664 1.184,-10.144 l 0.288,-1.728 -2.272,0.128 0.16,-1.28 q 1.888,0 2.72,-0.224 0.832,-0.224 1.344,-0.64 h 0.896 z" stroke-width="0" stroke-linejoin="miter" stroke-miterlimit="2" fill="#fcfcfc" stroke="#fcfcfc" transform="translate(5.684341886080802e-14 381.304765625) translate(463.90000000000015 43.96) scale(1.25) translate(-477.50925 24.16)"></path>
        <path id="path333739" style="font-style:oblique;font-weight:normal;font-size:32px;line-height:1;font-family:Lora;font-variant-ligatures:none;text-align:center;text-anchor:middle" d="m 491.33975,-21.888 q -0.384,2.24 -0.48,3.168 -0.512,3.744 -0.992,8.704 -0.448,4.928 -0.448,7.104 0,0.8 0.16,1.248 0.16,0.416 0.704,0.416 0.608,0 1.248,-0.736 0.64,-0.768 1.088,-2.368 l 0.896,0.224 q -0.16,0.896 -0.672,1.952 -0.512,1.024 -1.408,1.792 -0.864,0.736 -2.048,0.736 -1.344,0 -1.952,-0.704 -0.608,-0.704 -0.608,-2.144 0,-2.112 0.544,-7.776 0.576,-5.664 1.184,-10.144 l 0.288,-1.728 -2.272,0.128 0.16,-1.28 q 1.888,0 2.72,-0.224 0.832,-0.224 1.344,-0.64 h 0.896 z" stroke-width="0" stroke-linejoin="miter" stroke-miterlimit="2" fill="#fcfcfc" stroke="#fcfcfc" transform="translate(5.684341886080802e-14 381.304765625) translate(477.72812500000015 43.96) scale(1.25) translate(-486.57175 24.16)"></path>
        <path id="path333741" style="font-style:oblique;font-weight:normal;font-size:32px;line-height:1;font-family:Lora;font-variant-ligatures:none;text-align:center;text-anchor:middle" d="m 502.99425,-22.912 q 1.408,0 2.848,0.384 1.472,0.352 2.624,1.248 l -0.064,-1.376 h 1.632 l -0.352,7.04 h -1.152 q -0.032,-2.528 -1.408,-4.256 -1.376,-1.76 -4,-1.76 -1.984,0 -3.168,1.184 -1.184,1.152 -1.184,2.816 0,1.216 0.704,2.112 0.704,0.864 1.728,1.472 1.024,0.608 2.816,1.44 2.048,0.928 3.328,1.728 1.28,0.768 2.144,1.984 0.896,1.216 0.896,2.976 0,1.888 -0.928,3.36 -0.928,1.44 -2.688,2.272 -1.76,0.8 -4.192,0.8 -1.472,0 -3.008,-0.32 -1.504,-0.32 -2.592,-1.056 l 0.096,1.12 h -1.664 l 0.16,-6.816 h 1.248 q 0.032,2.848 1.664,4.288 1.632,1.44 4.32,1.44 2.048,0 3.456,-1.12 1.44,-1.12 1.44,-3.104 0,-1.344 -0.736,-2.304 -0.736,-0.96 -1.792,-1.6 -1.056,-0.64 -2.912,-1.536 -1.984,-0.928 -3.2,-1.664 -1.184,-0.736 -2.016,-1.888 -0.832,-1.152 -0.832,-2.816 0,-1.28 0.608,-2.656 0.608,-1.408 2.112,-2.4 1.536,-0.992 4.064,-0.992 z" stroke-width="0" stroke-linejoin="miter" stroke-miterlimit="2" fill="#fcfcfc" stroke="#fcfcfc" transform="translate(5.684341886080802e-14 381.304765625) translate(491.2762500000001 45.519999999999996) scale(1.25) translate(-495.41025 22.912)"></path>
        <path id="path333743" style="font-style:oblique;font-weight:normal;font-size:32px;line-height:1;font-family:Lora;font-variant-ligatures:none;text-align:center;text-anchor:middle" d="m 533.24725,-16.352 q 1.792,0 2.56,1.152 0.8,1.152 0.8,3.008 0,1.344 -0.16,2.72 -0.16,1.344 -0.48,3.424 -0.416,2.56 -0.416,3.328 0,0.704 0.16,1.088 0.192,0.384 0.704,0.384 0.608,0 1.248,-0.736 0.672,-0.768 1.12,-2.368 l 0.896,0.224 q -0.16,0.896 -0.704,1.952 -0.512,1.024 -1.408,1.792 -0.896,0.736 -2.08,0.736 -1.44,0 -2.016,-0.736 -0.544,-0.768 -0.544,-2.336 0,-1.312 0.512,-4.224 0.032,-0.288 0.224,-1.568 0.192,-1.312 0.288,-2.4 0.128,-1.12 0.128,-1.984 0,-0.736 -0.352,-1.344 -0.352,-0.608 -1.184,-0.608 -1.44,0 -2.816,2.112 -1.344,2.112 -2.208,5.216 -0.832,3.104 -0.832,5.824 0,0.608 0.064,1.696 h -2.688 q -0.032,-0.288 -0.032,-0.832 0,-1.056 0.192,-2.816 0.192,-1.76 0.416,-3.488 0.544,-4.16 0.544,-5.664 0,-2.048 -1.536,-2.048 -1.408,0 -2.784,2.112 -1.344,2.112 -2.208,5.248 -0.864,3.104 -0.864,5.792 0,0.608 0.064,1.696 h -2.688 q -0.032,-0.288 -0.032,-0.832 0,-0.8 0.128,-2.304 0.16,-1.536 0.48,-4.096 l 0.384,-3.328 q 0.128,-1.12 0.192,-1.696 0.064,-0.608 0.064,-1.056 0,-0.672 -0.192,-1.056 -0.16,-0.384 -0.672,-0.384 -0.608,0 -1.248,0.768 -0.64,0.768 -1.088,2.336 l -0.896,-0.192 q 0.16,-0.896 0.672,-1.952 0.544,-1.056 1.408,-1.792 0.896,-0.768 2.08,-0.768 2.4,0 2.4,3.2 0,0.896 -0.192,1.984 -0.16,1.088 -0.32,1.952 h 0.096 q 1.376,-4 2.848,-5.568 1.472,-1.568 3.008,-1.568 1.76,0 2.592,1.12 0.832,1.12 0.832,2.528 0,0.832 -0.096,1.408 -0.096,0.544 -0.448,1.984 h 0.096 q 1.44,-4 2.944,-5.504 1.504,-1.536 3.04,-1.536 z" stroke-width="0" stroke-linejoin="miter" stroke-miterlimit="2" fill="#fcfcfc" stroke="#fcfcfc" transform="translate(5.684341886080802e-14 381.304765625) translate(514.8725000000001 53.72) scale(1.25) translate(-512.28725 16.352)"></path>
        <path id="path333745" style="font-style:oblique;font-weight:normal;font-size:32px;line-height:1;font-family:Lora;font-variant-ligatures:none;text-align:center;text-anchor:middle" d="m 549.24575,-16.352 q 1.728,0 3.104,0.832 1.408,0.832 2.176,2.432 0.8,1.568 0.8,3.744 0,2.624 -0.96,4.832 -0.928,2.208 -2.72,3.552 -1.76,1.312 -4.16,1.312 -3.04,0 -4.608,-1.984 -1.536,-2.016 -1.536,-5.184 0,-2.624 0.96,-4.8 0.96,-2.176 2.752,-3.456 1.792,-1.28 4.192,-1.28 z m -0.512,1.184 q -1.408,0 -2.464,1.024 -1.024,0.992 -1.568,2.752 -0.544,1.728 -0.544,3.872 0,2.656 0.864,4.672 0.864,1.984 2.816,1.984 1.632,0 2.656,-1.248 1.056,-1.248 1.536,-3.072 0.48,-1.824 0.48,-3.552 0,-2.688 -0.864,-4.544 -0.832,-1.888 -2.912,-1.888 z" stroke-width="0" stroke-linejoin="miter" stroke-miterlimit="2" fill="#fcfcfc" stroke="#fcfcfc" transform="translate(5.684341886080802e-14 381.304765625) translate(553.6906250000001 53.72) scale(1.25) translate(-541.34175 16.352)"></path>
        <path id="path333747" style="font-style:oblique;font-weight:normal;font-size:32px;line-height:1;font-family:Lora;font-variant-ligatures:none;text-align:center;text-anchor:middle" d="m 563.14925,-16 h 5.088 l -0.096,1.216 -5.12,0.064 -0.224,2.048 q -0.704,6.08 -0.704,8.608 0,1.248 0.288,2.016 0.288,0.768 1.216,0.768 1.664,0 3.008,-2.24 l 0.832,0.544 q -0.992,1.696 -2.08,2.528 -1.056,0.8 -2.528,0.8 -1.76,0 -2.56,-1.056 -0.768,-1.056 -0.768,-2.72 0,-1.856 0.224,-4.864 0.224,-3.04 0.608,-6.4 l -2.848,0.032 0.096,-1.344 q 1.92,0 3.104,-1.12 1.184,-1.152 1.824,-3.392 h 1.216 z" stroke-width="0" stroke-linejoin="miter" stroke-miterlimit="2" fill="#fcfcfc" stroke="#fcfcfc" transform="translate(5.684341886080802e-14 381.304765625) translate(576.3699999999999 48.519999999999996) scale(1.25) translate(-557.48525 20.512)"></path>
        <path id="path333749" style="font-style:oblique;font-weight:normal;font-size:32px;line-height:1;font-family:Lora;font-variant-ligatures:none;text-align:center;text-anchor:middle" d="m 574.83825,-22.56 q -0.512,3.072 -0.608,3.84 -0.224,1.632 -0.544,4.736 -0.288,3.072 -0.416,4.768 h 0.096 q 1.504,-4.064 3.008,-5.6 1.536,-1.536 3.296,-1.536 1.792,0 2.656,1.184 0.864,1.152 0.864,2.976 0,2.144 -0.544,6.144 -0.352,2.528 -0.352,3.328 0,0.704 0.16,1.088 0.192,0.384 0.704,0.384 0.608,0 1.248,-0.736 0.64,-0.768 1.088,-2.368 l 0.8,0.224 q -0.288,1.536 -1.344,3.008 -1.024,1.472 -2.72,1.472 -1.44,0 -2.016,-0.736 -0.576,-0.768 -0.576,-2.336 0,-1.216 0.416,-4.256 0.064,-0.416 0.288,-2.368 0.224,-1.984 0.224,-3.552 0,-0.736 -0.352,-1.344 -0.352,-0.608 -1.184,-0.608 -1.376,0 -2.816,2.048 -1.44,2.048 -2.368,5.152 -0.928,3.072 -0.928,5.952 0,0.608 0.064,1.696 h -2.624 q -0.032,-0.288 -0.032,-0.832 0,-2.368 0.544,-9.216 0.544,-6.88 1.056,-10.4 0.064,-0.384 0.288,-1.696 l -2.24,0.128 0.128,-1.28 q 1.92,0 2.752,-0.224 0.832,-0.224 1.312,-0.64 h 0.928 z" stroke-width="0" stroke-linejoin="miter" stroke-miterlimit="2" fill="#fcfcfc" stroke="#fcfcfc" transform="translate(5.684341886080802e-14 381.304765625) translate(594.48125 43.96) scale(1.25) translate(-569.97425 24.16)"></path>
        <path id="path333751" style="font-style:oblique;font-weight:normal;font-size:32px;line-height:1;font-family:Lora;font-variant-ligatures:none;text-align:center;text-anchor:middle" d="m 593.21475,-21.888 q -0.384,2.24 -0.48,3.168 -0.512,3.744 -0.992,8.704 -0.448,4.928 -0.448,7.104 0,0.8 0.16,1.248 0.16,0.416 0.704,0.416 0.608,0 1.248,-0.736 0.64,-0.768 1.088,-2.368 l 0.896,0.224 q -0.16,0.896 -0.672,1.952 -0.512,1.024 -1.408,1.792 -0.864,0.736 -2.048,0.736 -1.344,0 -1.952,-0.704 -0.608,-0.704 -0.608,-2.144 0,-2.112 0.544,-7.776 0.576,-5.664 1.184,-10.144 l 0.288,-1.728 -2.272,0.128 0.16,-1.28 q 1.888,0 2.72,-0.224 0.832,-0.224 1.344,-0.64 h 0.896 z" stroke-width="0" stroke-linejoin="miter" stroke-miterlimit="2" fill="#fcfcfc" stroke="#fcfcfc" transform="translate(5.684341886080802e-14 381.304765625) translate(620.0718749999999 43.96) scale(1.25) translate(-588.44675 24.16)"></path>
        <path id="path333753" style="font-style:oblique;font-weight:normal;font-size:32px;line-height:1;font-family:Lora;font-variant-ligatures:none;text-align:center;text-anchor:middle" d="m 608.32075,-16.352 q 1.344,0 1.952,1.184 0.608,1.184 0.608,2.912 0,2.912 -1.152,6.112 -1.152,3.168 -3.104,6.688 -2.304,4.224 -4.384,6.176 -2.08,1.952 -4.064,1.952 -1.152,0 -1.888,-0.576 -0.704,-0.576 -0.704,-1.44 0,-0.672 0.416,-1.088 0.416,-0.384 0.896,-0.384 0.672,0 1.024,0.416 0.384,0.448 0.352,1.248 0.448,0.224 0.704,0.224 1.216,0.064 2.592,-1.536 1.408,-1.6 2.304,-3.136 -0.576,-3.936 -1.6,-7.936 -1.024,-4 -2.304,-7.104 -0.384,-0.832 -0.672,-1.216 -0.288,-0.416 -0.8,-0.416 -0.544,0 -0.896,0.672 -0.32,0.672 -0.32,1.824 0,0.544 0.032,0.832 l -1.024,0.128 q -0.032,-0.32 -0.032,-0.96 0,-1.888 0.672,-3.232 0.704,-1.344 2.272,-1.344 1.44,0 2.24,1.024 0.8,0.992 1.376,2.592 0.64,1.728 1.152,3.744 0.512,1.984 1.216,5.12 0.192,0.928 0.48,3.264 h 0.064 q 1.536,-2.688 2.592,-5.632 1.056,-2.976 1.056,-5.376 0,-0.768 -0.16,-1.376 -0.128,-0.608 -0.32,-0.896 -0.288,0.192 -0.8,0.192 -0.576,0 -0.928,-0.352 -0.352,-0.384 -0.352,-0.896 0,-0.672 0.448,-1.024 0.448,-0.384 1.056,-0.384 z" stroke-width="0" stroke-linejoin="miter" stroke-miterlimit="2" fill="#fcfcfc" stroke="#fcfcfc" transform="translate(5.684341886080802e-14 381.304765625) translate(631.4943749999999 53.72) scale(1.25) translate(-595.58475 16.352)"></path>
      </g>
      <g id="title" style="font-style:normal;font-weight:400;font-size:72px;line-height:1;font-family:Boycott;font-variant-ligatures:none;text-align:center;text-anchor:middle" transform="translate(0 0)">
        <path id="path333756" style="font-style:normal;font-weight:400;font-size:72px;line-height:1;font-family:Boycott;font-variant-ligatures:none;text-align:center;text-anchor:middle" d="m 384.54687,-59.578125 h 3.5625 l 0.75,0.75 -0.1875,0.9375 q 1.125,0.421875 1.125,0.75 -0.375,0 -0.375,0.5625 l -0.1875,0.1875 h -0.1875 l -0.375,-0.375 -0.5625,0.375 h -0.375 v -0.375 h -0.5625 v 0.375 l 0.375,0.5625 -0.375,0.5625 v 0.1875 l 0.5625,0.5625 h 0.1875 l 0.375,-0.375 v -0.1875 l -0.1875,-0.1875 v -0.1875 l 1.125,-0.375 q 0.46875,3.421875 1.125,4.125 l -0.1875,0.5625 q 1.125,11.0625 2.8125,11.0625 v 0.75 l -0.1875,1.3125 0.5625,0.5625 v 0.375 h -0.375 l 0.5625,1.875 -0.1875,1.6875 q 0.42188,3.1875 0.9375,3.1875 0.9375,0 0.9375,0.375 v 0.1875 q 0,0.375 -0.9375,0.375 l -0.1875,0.1875 v 0.1875 l 0.5625,0.75 -0.375,1.5 q 0.42188,1.6875 1.3125,2.8125 v 0.1875 l -0.375,0.5625 0.375,0.375 -0.1875,0.9375 q 0.46875,5.25 0.9375,5.25 l -0.1875,0.5625 0.75,2.625 -0.1875,0.1875 v 0.1875 q 0.75,2.390625 1.6875,11.25 l -0.1875,0.1875 v 0.1875 l 0.1875,0.75 q -0.28125,0.9375 -1.3125,0.9375 h -0.1875 l -2.0625,-0.1875 -2.4375,0.1875 h -2.625 q -0.79687,0 -1.3125,-5.8125 l -0.1875,-0.1875 0.5625,-0.5625 v -0.375 l -0.5625,-0.5625 0.5625,-1.5 -0.5625,-0.5625 -0.1875,0.1875 q -0.32812,-0.328125 -0.5625,-2.25 l 0.375,-1.6875 q -0.32812,-0.9375 -1.6875,-0.9375 l -0.375,0.375 h -0.1875 l -0.5625,-0.375 -0.5625,0.375 h -0.9375 l -0.1875,-0.1875 h -0.1875 l 0.375,-2.25 -0.1875,-0.1875 h -0.375 v 0.1875 l 0.1875,0.9375 q 0,1.6875 -1.125,1.6875 l -0.9375,-0.1875 -0.1875,0.1875 -0.375,-0.375 h -0.1875 q -2.01562,0.5625 -3,1.6875 l 0.1875,0.1875 v 0.1875 q -1.03125,7.5 -1.875,7.5 l 0.5625,0.5625 v 0.375 l -0.375,0.5625 v 1.125 q 0,1.875 -1.5,1.875 h -0.1875 l -0.5625,-0.1875 q -1.82812,0.375 -5.4375,0.375 h -1.875 l -0.375,-0.375 v -0.375 q 1.26563,-8.484375 1.875,-9.1875 l -0.1875,-0.5625 q 0.1875,-2.25 0.75,-3 l 0.1875,0.1875 h 0.1875 q 0.5625,-1.21875 0.75,-3.75 l -0.375,-1.125 q 0.46875,0 0.9375,-2.0625 l -0.375,-0.75 0.375,-3.375 h 0.1875 l 0.5625,0.375 0.375,-0.5625 v -0.375 l -0.75,-0.375 0.5625,-2.25 -0.1875,-0.5625 h 0.1875 l 0.9375,-0.375 0.1875,0.5625 h 0.5625 q 0.375,0 0.375,-0.5625 h 0.375 l 0.5625,0.375 0.75,-0.75 -0.1875,-0.1875 h 1.5 l 1.125,-0.1875 1.125,0.375 h 0.1875 q 0,-0.65625 -0.75,-1.3125 v -0.9375 q -0.5625,0 -0.5625,-0.375 l 1.125,-1.3125 -0.1875,-1.3125 h -0.375 q -0.89062,0.984375 -1.6875,1.3125 l -0.375,-0.375 0.1875,-1.125 -0.375,-0.375 h -0.375 l -0.1875,0.9375 q 0,0.5625 0.5625,0.5625 v 0.375 q -0.28125,0.75 -1.3125,0.75 v 1.5 h -0.375 l -0.75,-1.125 h -0.375 l -0.1875,0.75 h -0.1875 q -0.375,-1.5 -1.125,-1.5 l 0.1875,-0.5625 h 0.1875 l 0.5625,0.375 0.1875,-1.3125 h 0.1875 l 0.5625,0.375 h 0.5625 q 0.375,0 0.375,-0.5625 -0.375,-2.4375 -1.125,-2.4375 l 0.1875,-0.75 -0.5625,-1.125 v -0.375 q 0.5625,0 0.5625,-0.375 l -0.1875,-1.3125 h 0.375 l 0.5625,0.375 0.5625,-0.75 q -0.75,-0.1875 -0.75,-0.75 l -0.1875,0.1875 h -0.1875 l -0.375,-0.375 v -0.1875 q 0.60938,-3.140625 1.125,-3.75 l -0.5625,-0.9375 0.5625,-0.75 -0.1875,-1.3125 v -0.75 l 0.375,-0.375 h 0.1875 v 0.9375 l 0.1875,0.9375 h 0.5625 l 0.375,-0.375 v -0.375 l -0.1875,-1.125 q 0.28125,-0.75 0.5625,-0.75 l -0.1875,-0.9375 v -0.1875 h 0.9375 l 0.375,-0.375 q 0,-0.46875 -1.6875,-0.9375 l -0.1875,-1.5 1.125,0.1875 h 0.1875 v -0.1875 q -1.3125,-0.1875 -1.3125,-0.75 l 0.1875,-0.75 -0.1875,-0.1875 v -0.1875 q 0,-3.375 1.5,-3.375 h 7.125 l 0.1875,0.1875 h 0.1875 z m -3.375,21.375 h -0.1875 q 0,-0.9375 -0.75,-0.9375 l -0.5625,0.1875 v -0.1875 l -0.75,0.5625 v 0.375 l 1.125,0.75 h 0.1875 l 0.9375,-0.1875 0.1875,0.75 -0.75,1.875 0.1875,0.9375 -0.375,3 0.375,1.3125 -1.6875,6.1875 q 0.32813,1.3125 1.125,1.3125 l 2.0625,-0.1875 q 1.875,0.09375 1.875,0.5625 v 0.9375 q 0,0.5625 -1.3125,0.5625 l -0.1875,0.5625 1.125,1.3125 h 0.1875 v -0.75 l -0.5625,-0.1875 -0.1875,0.1875 v -0.375 l 0.375,-0.5625 q 0.5625,0 0.5625,0.9375 h 0.5625 q 0,-0.5625 0.5625,-0.5625 l 0.1875,-0.1875 v -1.3125 l -0.9375,0.1875 v -0.75 q 0.1875,-0.5625 1.125,-0.5625 0.28125,1.40625 1.3125,1.875 l 0.5625,-0.1875 v -0.1875 q -1.125,-1.21875 -1.125,-3.375 -0.375,0 -0.375,-1.125 -0.5625,0 -0.5625,-0.375 v -0.375 q 0.5625,-0.703125 0.5625,-1.3125 v -0.1875 q -1.125,0 -1.125,-0.9375 l -0.375,-1.875 v -0.1875 q 0.79688,0 1.6875,-0.75 h 0.5625 v -0.1875 l -0.1875,-0.1875 v -0.1875 l -2.0625,0.375 q -0.51562,-1.078125 -0.75,-4.125 l 0.5625,-1.5 q -1.40625,0 -1.6875,-5.25 l -0.375,-0.375 q -0.5625,0 -1.125,4.6875 z m -2.0625,-1.6875 v 0.375 h 0.5625 v -0.375 z m 6.75,0.1875 v 0.75 h 0.1875 l 0.1875,-0.5625 -0.1875,-0.1875 z m -8.0625,0.9375 0.1875,0.1875 h 0.375 l 0.375,-0.375 v -0.1875 h -0.5625 z m 7.3125,0 v 0.1875 l 0.375,0.375 0.1875,-0.1875 v -0.375 z m -11.25,3 0.375,0.375 h 0.1875 l 0.1875,-0.75 h -0.375 z m 2.4375,1.3125 v 0.375 h 0.1875 l 0.5625,-0.1875 1.125,0.1875 h 0.1875 v -0.5625 l -0.75,-0.1875 z m -4.6875,3.1875 0.5625,0.75 v 0.1875 l -0.375,0.375 h -0.75 v -0.375 h -0.1875 q 0.375,-0.84375 0.75,-0.9375 z m 15.5625,1.3125 v 0.375 h 0.1875 l 2.25,0.1875 v -0.5625 l -1.3125,-0.375 z m -15,0.375 h 0.1875 v 0.9375 h -0.375 l -0.375,-0.375 z m 17.625,0.75 v 0.5625 h 0.375 v -0.5625 z m -3.375,0.1875 v 0.1875 l 0.375,0.375 h 0.5625 v -0.1875 l -0.375,-0.375 z m -12.9375,2.0625 0.1875,0.9375 -0.375,0.5625 v 0.1875 h 1.125 v -0.375 h 0.1875 l -0.1875,-0.1875 v -0.1875 l 0.1875,-1.125 h -0.75 l -0.1875,0.1875 z m -0.75,0 v 0.375 h 0.1875 l 0.375,-0.375 z m -1.125,1.125 0.1875,1.875 h 0.1875 l 0.5625,-1.6875 -0.1875,-0.1875 z m 17.4375,0.9375 v 0.375 h 0.5625 l 0.1875,-0.5625 -0.1875,-0.1875 h -0.1875 z m 1.125,-0.1875 v 0.9375 h 0.1875 v -0.9375 z m -0.1875,1.5 -0.1875,0.5625 0.375,0.5625 0.75,-0.5625 q 0,-0.421875 -0.9375,-0.5625 z m -1.6875,1.6875 v 0.1875 l 0.9375,0.1875 h 0.375 l 0.375,-0.375 v -0.375 l -0.1875,0.1875 h -0.5625 v -0.375 h -0.375 z m -3.9375,0.5625 h 0.5625 v 0.375 l -0.5625,-0.1875 z m -8.25,2.0625 v 0.1875 l 0.75,-0.1875 q 0.5625,0 0.5625,0.5625 l 0.1875,0.1875 h 0.375 l 0.375,-0.375 v -0.375 q -1.125,0 -1.125,-0.9375 h -0.1875 z m 11.625,-0.9375 -0.1875,0.1875 v 0.75 h 0.5625 v -0.5625 z m -4.3125,2.625 v 0.5625 h 0.375 v -0.5625 z m 6.375,0.375 v 0.1875 l 0.375,0.5625 -0.5625,0.75 h 1.5 v -0.5625 l -0.75,-0.9375 z m 1.5,0.75 v 0.75 h 0.1875 l 1.5,-0.1875 v -0.5625 h -1.125 l -0.1875,0.1875 h -0.1875 z m 2.0625,0.9375 q 0,0.5625 -0.375,0.5625 l -0.9375,-0.1875 v 0.5625 q 0,0.375 0.5625,0.375 l 0.5625,-0.1875 v 0.1875 l -0.1875,0.5625 1.125,0.375 0.1875,-0.1875 v -0.375 q -0.5625,-0.65625 -0.75,-1.6875 z m 0.1875,2.8125 v 0.1875 l 0.375,0.375 v -0.5625 z m -0.1875,0.9375 -0.1875,0.5625 h 0.375 l 0.375,-0.375 v -0.1875 z m -1.3125,1.3125 v 0.1875 h 1.125 v -0.375 l -0.375,-0.375 z m -1.875,-0.375 v 0.5625 l 0.375,0.375 h 0.5625 v -0.375 l -0.5625,-0.5625 z m -18.9375,1.125 v 0.5625 h 0.375 v 0.1875 l 0.75,-0.5625 v -0.5625 h -0.75 z m 2.625,1.3125 v 0.1875 l 0.375,0.375 h 0.1875 l 0.375,-0.375 -0.1875,-0.1875 z m 15.5625,0.75 v 0.5625 h 0.1875 l 0.375,-0.375 -0.1875,-0.1875 z m -20.0625,0.5625 v 0.1875 l 5.625,1.875 v -0.375 z" stroke-width="0" stroke-linejoin="miter" stroke-miterlimit="2" fill="#fcfcfc" stroke="#fcfcfc" transform="translate(0 270.046796875) translate(323.15234375 48.93359375) scale(1.25) translate(-365.98437 59.578125)"></path>
        <path id="path333758" style="font-style:normal;font-weight:400;font-size:72px;line-height:1;font-family:Boycott;font-variant-ligatures:none;text-align:center;text-anchor:middle" d="m 399.78125,-73.40625 0.75,0.1875 v 0.375 l -0.375,0.375 q -0.9375,-0.234375 -0.9375,-0.5625 v -0.1875 z m -3.1875,0.375 0.75,0.1875 v 0.1875 q 0,0.375 -2.625,0.75 v -0.1875 q 0,-0.421875 1.875,-0.9375 z m 7.125,0.1875 0.375,0.375 -0.1875,0.1875 v 0.1875 l -0.5625,-0.1875 v -0.1875 z m -1.125,0.1875 h 0.5625 l 0.1875,0.9375 h -0.5625 z m 2.25,0.1875 h 0.5625 l -0.375,0.375 h -0.1875 z m 7.125,1.6875 0.1875,0.1875 v 0.1875 l -1.5,0.75 -0.1875,-0.1875 h -0.1875 l -1.125,0.1875 -0.9375,-0.375 v -0.1875 l 0.1875,-0.1875 v -0.1875 l 0.1875,0.1875 h 0.5625 l 1.125,-0.1875 0.5625,0.1875 z m 4.875,9.5625 q 4.45312,0 9.9375,2.625 l 0.5625,-0.1875 q 0.51562,1.125 2.0625,1.125 l 0.1875,0.1875 v 0.1875 l -0.9375,0.75 q 1.64062,1.6875 2.25,1.6875 0,1.3125 1.875,1.3125 0.375,0.9375 1.3125,0.9375 l 0.375,-0.375 h 0.5625 l -0.75,1.125 0.5625,0.1875 v 0.375 h -0.375 q 0,0.5625 -1.3125,1.125 l -0.1875,-0.1875 h -1.3125 v 0.5625 q 0,0.5625 0.75,1.5 v 0.1875 q -0.46875,0.9375 -2.0625,0.9375 -0.375,0 -0.375,0.5625 l -0.1875,0.1875 h -2.8125 q -0.9375,0 -0.9375,0.375 l -0.1875,-0.1875 h -0.1875 l -1.125,0.375 v -0.1875 l -0.1875,0.1875 h -1.125 v -0.375 l 0.1875,-0.9375 q -0.46875,0 -1.3125,-3 -0.60938,-1.453125 -4.125,-3 v -0.1875 l -0.9375,0.1875 q -1.125,-0.515625 -1.125,-1.5 l 0.1875,-1.6875 -0.1875,-0.9375 0.375,-0.375 v -0.375 q -0.5625,-0.703125 -0.5625,-1.3125 v -1.3125 q 0,-0.328125 1.125,-0.5625 z m -3.75,0.75 h 0.375 l 0.9375,1.125 q -0.14063,2.015625 -0.5625,2.4375 l 0.5625,0.75 -0.1875,0.1875 v 0.1875 l 0.375,1.125 -0.1875,0.5625 0.1875,0.9375 q 0,1.21875 -1.5,4.125 -0.375,0.75 -0.375,2.4375 v 0.375 q 0,2.25 2.0625,7.125 l -0.375,0.375 q -0.375,0 -0.375,-0.5625 h -0.375 l -0.1875,0.1875 h -0.1875 q -0.14063,-0.9375 -0.5625,-0.9375 -0.60938,0 -0.9375,1.875 l 0.5625,0.1875 v -0.1875 l 0.1875,0.1875 h 1.125 l 0.1875,0.75 -0.1875,0.1875 0.1875,0.9375 v 1.5 l 0.5625,0.1875 0.1875,-0.1875 v 0.9375 l -0.5625,0.5625 v -0.375 h -0.1875 v 0.5625 l 0.1875,1.125 q -0.23438,3 -0.75,3 -5.20313,-4.40625 -7.3125,-7.875 -0.9375,-1.546875 -0.9375,-4.3125 v -0.5625 l -0.375,-0.375 v 1.5 h -0.1875 q -0.9375,0 -1.125,-4.875 l 1.125,-0.375 -0.1875,0.1875 v 0.375 l 0.1875,0.1875 v 0.1875 l -0.375,0.375 v 0.1875 h 0.375 v 0.9375 l 0.375,0.375 v -0.1875 l -0.1875,-1.6875 0.375,-0.375 q -0.375,-0.328125 -0.375,-1.875 l -0.1875,-0.1875 h -0.1875 l -0.1875,1.125 q -0.9375,-0.46875 -0.9375,-1.875 0.375,-0.515625 0.5625,-2.8125 h 0.375 l -0.1875,0.5625 0.375,2.4375 h 0.1875 l 0.375,-2.25 -0.375,-0.75 q 0,-2.203125 0.9375,-3.375 l 0.1875,0.1875 h 0.5625 l -0.1875,-1.3125 q 2.15625,-3.421875 6.375,-5.0625 z m -1.6875,2.625 v 0.5625 l 0.5625,0.5625 0.375,-0.5625 -0.1875,-0.9375 h -0.375 z m -1.3125,0.1875 v 0.1875 h 0.75 v -0.1875 l -0.375,-0.375 z m 9.75,1.3125 -0.1875,-0.1875 h -0.375 q -1.6875,0.328125 -1.6875,0.75 v 0.375 l 1.3125,0.1875 1.875,-1.125 1.125,0.1875 h 0.1875 l -1.5,-0.75 h -0.1875 z m -12.1875,1.875 v 0.1875 q 0,0.421875 2.0625,0.9375 l -0.1875,-0.1875 v -0.5625 l 0.1875,-0.1875 v -0.1875 l -0.375,-0.375 v -0.5625 l 0.1875,-0.1875 v -0.1875 h -0.375 q -1.07813,0.609375 -1.5,1.3125 z m 24.75,-0.75 h 0.5625 v 0.1875 l -0.375,0.375 -0.1875,-0.1875 z m 6.75,2.0625 h 0.1875 l 1.3125,0.375 v 0.375 h -0.5625 z m 4.125,0.1875 1.875,0.375 v 0.375 h -1.3125 v 0.375 h -0.375 l -1.125,-0.9375 z m -7.3125,0.1875 1.125,0.1875 0.1875,-0.1875 h 0.1875 l 0.1875,0.75 h 0.5625 q 0,-0.5625 0.375,-0.5625 v 0.1875 l -0.1875,0.1875 0.375,0.75 -0.375,1.125 v 0.9375 h -0.1875 q -0.89063,-0.1875 -2.0625,-2.0625 l 0.5625,-0.1875 v -0.1875 l -0.375,-0.375 -0.1875,0.1875 -0.5625,-0.1875 v -0.1875 z m 5.8125,0 -0.375,0.375 h -0.5625 v -0.1875 z m 4.875,0.1875 h 0.375 l 0.375,0.375 -0.1875,0.1875 h -0.1875 l -0.75,-0.1875 z m -11.625,0.9375 h 0.5625 l 0.375,0.375 -0.9375,0.1875 z m -24.375,0.5625 v 0.5625 h 0.375 v -0.5625 z m 12.75,0 v 0.5625 h 0.1875 l 0.375,-0.375 v -0.1875 z m 29.0625,1.3125 0.5625,0.5625 v 0.375 l -0.9375,-0.1875 v -0.375 z m -2.4375,3.375 q 1.125,0.1875 1.125,0.5625 l -0.1875,0.1875 h -0.375 l -0.5625,-0.5625 z m 0,1.875 h 0.75 v 0.375 l -2.25,0.1875 h -0.5625 l -0.375,1.3125 h -0.1875 l -1.125,-1.125 q 0.5625,-0.75 3.75,-0.75 z m -4.5,0.75 h 0.375 v 0.75 l -0.375,0.375 h -0.5625 v -0.375 l -1.3125,0.375 -0.1875,-0.1875 v -0.1875 l 1.875,-0.5625 z m 2.625,0.5625 0.5625,0.1875 v 0.375 h -0.75 v -0.1875 l 0.1875,-0.1875 z m -41.8125,2.4375 v 0.5625 h 0.375 l 0.375,-0.375 v -0.1875 z m 38.4375,1.3125 q 0,0.796875 2.0625,1.875 l 0.375,-0.375 1.5,0.1875 v -0.75 l 1.125,0.1875 0.5625,-0.1875 0.1875,0.1875 v 0.1875 l -2.0625,1.125 h -0.9375 l -0.1875,0.5625 -0.5625,-0.375 -0.1875,0.1875 -1.125,-0.1875 -2.0625,0.1875 -0.375,-0.375 h -0.1875 v 0.9375 l -1.5,-0.375 -0.375,0.375 -0.1875,-0.1875 h -0.1875 l -0.75,0.1875 -2.0625,-0.9375 v 0.1875 l 0.1875,0.75 v 0.1875 l -0.1875,0.1875 0.1875,0.5625 3,-0.375 0.5625,0.1875 v 0.375 q -2.625,0.234375 -2.625,0.75 l -0.9375,-0.1875 -1.125,0.375 -0.9375,-0.1875 v 0.9375 l -0.9375,-0.1875 h -0.1875 q -1.3125,1.171875 -1.3125,2.0625 l -0.9375,-0.1875 0.375,1.125 -0.9375,0.1875 q -0.5625,-0.1875 -0.5625,-1.125 l 0.9375,-0.75 0.5625,0.1875 0.5625,-2.625 -0.1875,-0.1875 v -0.1875 l 0.1875,-0.75 1.3125,0.1875 v -0.375 l 0.9375,0.1875 q 0,-0.75 0.5625,-0.75 l 0.9375,-0.75 -0.375,-0.375 v -0.1875 l 0.5625,-0.1875 0.5625,0.1875 0.375,-0.75 h 0.1875 l 0.1875,0.9375 -0.1875,0.5625 0.1875,0.1875 h 0.1875 l 0.1875,-0.1875 0.375,0.375 h 0.75 l 2.25,-1.3125 v -0.375 l -0.1875,-0.1875 v -0.1875 z m 1.125,0 h 0.1875 q 1.125,0 1.125,1.125 v 0.1875 h -0.5625 l -0.75,-0.9375 z m -30.375,0.9375 1.125,1.5 -1.5,1.3125 q -0.42188,0 -0.75,-1.875 z m 17.625,1.5 v 0.5625 h -0.375 v -0.1875 z m 11.4375,0.75 0.1875,0.1875 h 0.1875 l 1.125,-0.1875 q 0,0.421875 0.5625,0.375 l 2.4375,-0.1875 q 0,1.078125 -2.4375,1.5 l -0.5625,-0.1875 -1.5,0.5625 h -0.75 q -1.21875,0 -1.5,-0.75 h -0.375 v -0.1875 l 1.3125,-0.75 h 0.375 q 0,0.5625 0.375,0.5625 h 0.1875 q 0,-0.9375 0.375,-0.9375 z m 4.875,0 h 0.5625 l 0.1875,0.1875 v 0.1875 h -0.1875 l -0.5625,-0.1875 z m -13.3125,1.125 0.9375,0.5625 0.1875,-0.1875 v -0.375 l -0.375,-0.375 h -0.375 z m -19.125,0 h 0.1875 v 0.1875 l -0.375,0.375 h -0.1875 v -0.1875 z m -17.625,0.1875 v 0.5625 h -0.375 v -0.1875 z m 20.0625,0.375 h 0.375 q 6.28125,4.875 9.375,9.5625 0,0.46875 1.6875,2.8125 l 0.1875,1.125 q 0,0.9375 -1.3125,0.9375 v 0.1875 l 0.9375,0.5625 h 0.5625 v -0.375 q 1.07812,0 1.3125,5.25 0.1875,4.3125 -3.1875,9.9375 -0.75,0 -0.9375,0.75 l -0.1875,-0.1875 h -0.5625 l 0.1875,0.9375 q -3.84375,2.8125 -5.4375,2.8125 l -0.1875,-0.1875 h -0.1875 l -0.75,0.1875 h -0.1875 v -0.5625 l -0.75,0.9375 h -1.3125 l -0.5625,-0.375 -1.125,0.375 -0.375,-1.3125 0.375,-0.5625 q -0.75,-1.03125 -0.75,-2.8125 0,-3.5625 1.125,-3.5625 2.15625,0 4.5,-2.0625 1.03125,2.53125 1.5,2.8125 v -0.375 q -0.9375,-2.390625 -0.9375,-3.9375 0.5625,-0.796875 0.5625,-4.125 h -0.1875 l 0.1875,-0.1875 v -0.1875 q -1.03125,-3.609375 -3,-5.625 l 0.1875,-0.9375 v -0.375 q -0.75,0 -0.75,-1.5 l -0.1875,-0.5625 h -0.1875 l 0.375,-2.0625 -0.375,-0.375 v -1.125 q 0,-1.59375 1.6875,-2.25 l 0.1875,-0.1875 v -0.1875 l -0.1875,-0.5625 h 0.5625 v -0.5625 q -1.54688,0 -2.25,-2.0625 z m -4.5,3.75 h 0.375 q 2.0625,1.21875 2.0625,3.375 l 0.1875,0.1875 v 0.375 q -0.375,0 -0.375,0.5625 l -0.1875,0.75 -0.1875,0.1875 h -0.1875 l -2.25,-2.25 v -0.375 h 1.125 v -0.375 q -0.9375,-0.890625 -0.9375,-2.0625 z m 10.875,4.5 v 0.1875 h 0.375 l 0.1875,-0.1875 h 0.1875 l -0.1875,-0.5625 z m 1.3125,0.75 v 0.1875 l 0.375,0.375 v -0.5625 z m -6.75,0.5625 -0.375,0.75 0.5625,0.1875 0.1875,-0.1875 v -0.375 z m 1.3125,1.125 -0.375,0.5625 v 0.375 l 0.375,0.375 h 0.5625 l 0.75,-0.375 q -0.28125,-0.9375 -1.3125,-0.9375 z m 3,0.5625 v 0.1875 l 0.75,0.75 h 0.375 v -0.75 z m 5.0625,1.3125 -0.1875,0.5625 h 0.1875 l 0.375,-0.375 v -0.1875 z m 0.75,3.375 v 0.5625 l 0.375,-0.375 v -0.1875 z m -19.5,1.125 q 0.5625,-0.04687 0.5625,0.9375 l 0.75,0.5625 -0.5625,0.1875 q 0,3 2.0625,6.1875 v 0.375 l -0.1875,1.125 0.375,1.6875 -0.375,2.625 0.1875,0.5625 -0.75,1.875 h -0.1875 l -1.125,-0.5625 -0.1875,0.5625 h -0.1875 q -2.625,-0.75 -4.3125,-3.375 l 0.1875,-1.125 -0.375,-0.375 h 0.1875 l 0.5625,0.375 0.1875,-0.1875 h 0.1875 q -0.32813,-0.84375 -1.125,-1.3125 h -0.1875 q -0.375,0 -0.375,1.125 h -0.375 q -1.59375,-1.640625 -2.8125,-6.1875 l 0.375,-0.375 q -0.75,-0.1875 -0.75,-1.125 v -0.1875 q 0,-2.0625 1.125,-2.0625 0.9375,0 0.9375,-0.75 l 0.1875,0.1875 h 0.1875 l 2.0625,-0.375 0.75,0.1875 q 0.51562,-0.421875 3,-0.5625 z m 19.5,0.375 v 0.1875 l 0.1875,0.5625 h 0.5625 v -0.1875 z m -22.5,0.5625 v 0.9375 h 0.375 v -0.5625 z m 17.625,0.5625 v 0.375 l 0.375,0.375 1.125,-0.9375 -0.375,-0.375 h -0.5625 z m -20.4375,1.3125 v 0.5625 h 0.375 v -0.5625 z m 0.75,1.5 v 0.5625 h 0.375 v -0.5625 z m 23.8125,0.375 v 0.375 h 0.5625 v -0.375 z m -1.5,0.1875 v 0.5625 h 0.5625 v -0.1875 l -0.375,-0.375 z m -19.3125,0.375 0.1875,1.3125 h 0.1875 l 0.1875,-0.9375 -0.375,-0.375 z m 15.75,2.25 v 0.375 h 0.5625 v -0.375 z m -0.375,1.125 v 0.375 h 0.1875 l 0.375,-0.375 z m -5.4375,2.4375 v 0.1875 l 0.375,0.375 0.1875,-0.1875 v -0.1875 l -0.1875,-0.1875 z m 1.125,3.75 -0.1875,0.9375 v 0.75 h 0.1875 l 0.375,-0.375 v -1.3125 z m -6.9375,1.875 h 0.1875 l 0.375,0.375 h -0.1875 z m 0,1.6875 0.375,0.375 v 0.1875 h -0.375 z" stroke-width="0" stroke-linejoin="miter" stroke-miterlimit="2" fill="#e4f1fb" stroke="#e4f1fb" transform="translate(0 270.046796875) translate(359.07031874999996 31.6484375) scale(1.25) translate(-394.71875 73.40625)"></path>
        <path id="path333760" style="font-style:normal;font-weight:400;font-size:72px;line-height:1;font-family:Boycott;font-variant-ligatures:none;text-align:center;text-anchor:middle" d="m 460.20312,-59.578125 h 3.5625 l 0.75,0.75 -0.1875,0.9375 q 1.125,0.421875 1.125,0.75 -0.375,0 -0.375,0.5625 l -0.1875,0.1875 h -0.1875 l -0.375,-0.375 -0.5625,0.375 h -0.375 v -0.375 h -0.5625 v 0.375 l 0.375,0.5625 -0.375,0.5625 v 0.1875 l 0.5625,0.5625 h 0.1875 l 0.375,-0.375 v -0.1875 l -0.1875,-0.1875 v -0.1875 l 1.125,-0.375 q 0.46875,3.421875 1.125,4.125 l -0.1875,0.5625 q 1.125,11.0625 2.8125,11.0625 v 0.75 l -0.1875,1.3125 0.5625,0.5625 v 0.375 h -0.375 l 0.5625,1.875 -0.1875,1.6875 q 0.42188,3.1875 0.9375,3.1875 0.9375,0 0.9375,0.375 v 0.1875 q 0,0.375 -0.9375,0.375 l -0.1875,0.1875 v 0.1875 l 0.5625,0.75 -0.375,1.5 q 0.42188,1.6875 1.3125,2.8125 v 0.1875 l -0.375,0.5625 0.375,0.375 -0.1875,0.9375 q 0.46875,5.25 0.9375,5.25 l -0.1875,0.5625 0.75,2.625 -0.1875,0.1875 v 0.1875 q 0.75,2.390625 1.6875,11.25 l -0.1875,0.1875 v 0.1875 l 0.1875,0.75 q -0.28125,0.9375 -1.3125,0.9375 h -0.1875 l -2.0625,-0.1875 -2.4375,0.1875 h -2.625 q -0.79687,0 -1.3125,-5.8125 l -0.1875,-0.1875 0.5625,-0.5625 v -0.375 l -0.5625,-0.5625 0.5625,-1.5 -0.5625,-0.5625 -0.1875,0.1875 q -0.32812,-0.328125 -0.5625,-2.25 l 0.375,-1.6875 q -0.32812,-0.9375 -1.6875,-0.9375 l -0.375,0.375 h -0.1875 l -0.5625,-0.375 -0.5625,0.375 h -0.9375 l -0.1875,-0.1875 h -0.1875 l 0.375,-2.25 -0.1875,-0.1875 h -0.375 v 0.1875 l 0.1875,0.9375 q 0,1.6875 -1.125,1.6875 l -0.9375,-0.1875 -0.1875,0.1875 -0.375,-0.375 h -0.1875 q -2.01562,0.5625 -3,1.6875 l 0.1875,0.1875 v 0.1875 q -1.03125,7.5 -1.875,7.5 l 0.5625,0.5625 v 0.375 l -0.375,0.5625 v 1.125 q 0,1.875 -1.5,1.875 h -0.1875 l -0.5625,-0.1875 q -1.82812,0.375 -5.4375,0.375 h -1.875 l -0.375,-0.375 v -0.375 q 1.26563,-8.484375 1.875,-9.1875 l -0.1875,-0.5625 q 0.1875,-2.25 0.75,-3 l 0.1875,0.1875 h 0.1875 q 0.5625,-1.21875 0.75,-3.75 l -0.375,-1.125 q 0.46875,0 0.9375,-2.0625 l -0.375,-0.75 0.375,-3.375 h 0.1875 l 0.5625,0.375 0.375,-0.5625 v -0.375 l -0.75,-0.375 0.5625,-2.25 -0.1875,-0.5625 h 0.1875 l 0.9375,-0.375 0.1875,0.5625 h 0.5625 q 0.375,0 0.375,-0.5625 h 0.375 l 0.5625,0.375 0.75,-0.75 -0.1875,-0.1875 h 1.5 l 1.125,-0.1875 1.125,0.375 h 0.1875 q 0,-0.65625 -0.75,-1.3125 v -0.9375 q -0.5625,0 -0.5625,-0.375 l 1.125,-1.3125 -0.1875,-1.3125 h -0.375 q -0.89062,0.984375 -1.6875,1.3125 l -0.375,-0.375 0.1875,-1.125 -0.375,-0.375 h -0.375 l -0.1875,0.9375 q 0,0.5625 0.5625,0.5625 v 0.375 q -0.28125,0.75 -1.3125,0.75 v 1.5 h -0.375 l -0.75,-1.125 h -0.375 l -0.1875,0.75 h -0.1875 q -0.375,-1.5 -1.125,-1.5 l 0.1875,-0.5625 h 0.1875 l 0.5625,0.375 0.1875,-1.3125 h 0.1875 l 0.5625,0.375 h 0.5625 q 0.375,0 0.375,-0.5625 -0.375,-2.4375 -1.125,-2.4375 l 0.1875,-0.75 -0.5625,-1.125 v -0.375 q 0.5625,0 0.5625,-0.375 l -0.1875,-1.3125 h 0.375 l 0.5625,0.375 0.5625,-0.75 q -0.75,-0.1875 -0.75,-0.75 l -0.1875,0.1875 h -0.1875 l -0.375,-0.375 v -0.1875 q 0.60938,-3.140625 1.125,-3.75 l -0.5625,-0.9375 0.5625,-0.75 -0.1875,-1.3125 v -0.75 l 0.375,-0.375 h 0.1875 v 0.9375 l 0.1875,0.9375 h 0.5625 l 0.375,-0.375 v -0.375 l -0.1875,-1.125 q 0.28125,-0.75 0.5625,-0.75 l -0.1875,-0.9375 v -0.1875 h 0.9375 l 0.375,-0.375 q 0,-0.46875 -1.6875,-0.9375 l -0.1875,-1.5 1.125,0.1875 h 0.1875 v -0.1875 q -1.3125,-0.1875 -1.3125,-0.75 l 0.1875,-0.75 -0.1875,-0.1875 v -0.1875 q 0,-3.375 1.5,-3.375 h 7.125 l 0.1875,0.1875 h 0.1875 z m -3.375,21.375 h -0.1875 q 0,-0.9375 -0.75,-0.9375 l -0.5625,0.1875 v -0.1875 l -0.75,0.5625 v 0.375 l 1.125,0.75 h 0.1875 l 0.9375,-0.1875 0.1875,0.75 -0.75,1.875 0.1875,0.9375 -0.375,3 0.375,1.3125 -1.6875,6.1875 q 0.32813,1.3125 1.125,1.3125 l 2.0625,-0.1875 q 1.875,0.09375 1.875,0.5625 v 0.9375 q 0,0.5625 -1.3125,0.5625 l -0.1875,0.5625 1.125,1.3125 h 0.1875 v -0.75 l -0.5625,-0.1875 -0.1875,0.1875 v -0.375 l 0.375,-0.5625 q 0.5625,0 0.5625,0.9375 h 0.5625 q 0,-0.5625 0.5625,-0.5625 l 0.1875,-0.1875 v -1.3125 l -0.9375,0.1875 v -0.75 q 0.1875,-0.5625 1.125,-0.5625 0.28125,1.40625 1.3125,1.875 l 0.5625,-0.1875 v -0.1875 q -1.125,-1.21875 -1.125,-3.375 -0.375,0 -0.375,-1.125 -0.5625,0 -0.5625,-0.375 v -0.375 q 0.5625,-0.703125 0.5625,-1.3125 v -0.1875 q -1.125,0 -1.125,-0.9375 l -0.375,-1.875 v -0.1875 q 0.79688,0 1.6875,-0.75 h 0.5625 v -0.1875 l -0.1875,-0.1875 v -0.1875 l -2.0625,0.375 q -0.51562,-1.078125 -0.75,-4.125 l 0.5625,-1.5 q -1.40625,0 -1.6875,-5.25 l -0.375,-0.375 q -0.5625,0 -1.125,4.6875 z m -2.0625,-1.6875 v 0.375 h 0.5625 v -0.375 z m 6.75,0.1875 v 0.75 h 0.1875 l 0.1875,-0.5625 -0.1875,-0.1875 z m -8.0625,0.9375 0.1875,0.1875 h 0.375 l 0.375,-0.375 v -0.1875 h -0.5625 z m 7.3125,0 v 0.1875 l 0.375,0.375 0.1875,-0.1875 v -0.375 z m -11.25,3 0.375,0.375 h 0.1875 l 0.1875,-0.75 h -0.375 z m 2.4375,1.3125 v 0.375 h 0.1875 l 0.5625,-0.1875 1.125,0.1875 h 0.1875 v -0.5625 l -0.75,-0.1875 z m -4.6875,3.1875 0.5625,0.75 v 0.1875 l -0.375,0.375 h -0.75 v -0.375 h -0.1875 q 0.375,-0.84375 0.75,-0.9375 z m 15.5625,1.3125 v 0.375 h 0.1875 l 2.25,0.1875 v -0.5625 l -1.3125,-0.375 z m -15,0.375 h 0.1875 v 0.9375 h -0.375 l -0.375,-0.375 z m 17.625,0.75 v 0.5625 h 0.375 v -0.5625 z m -3.375,0.1875 v 0.1875 l 0.375,0.375 h 0.5625 v -0.1875 l -0.375,-0.375 z m -12.9375,2.0625 0.1875,0.9375 -0.375,0.5625 v 0.1875 h 1.125 v -0.375 h 0.1875 l -0.1875,-0.1875 v -0.1875 l 0.1875,-1.125 h -0.75 l -0.1875,0.1875 z m -0.75,0 v 0.375 h 0.1875 l 0.375,-0.375 z m -1.125,1.125 0.1875,1.875 h 0.1875 l 0.5625,-1.6875 -0.1875,-0.1875 z m 17.4375,0.9375 v 0.375 h 0.5625 l 0.1875,-0.5625 -0.1875,-0.1875 h -0.1875 z m 1.125,-0.1875 v 0.9375 h 0.1875 v -0.9375 z m -0.1875,1.5 -0.1875,0.5625 0.375,0.5625 0.75,-0.5625 q 0,-0.421875 -0.9375,-0.5625 z m -1.6875,1.6875 v 0.1875 l 0.9375,0.1875 h 0.375 l 0.375,-0.375 v -0.375 l -0.1875,0.1875 h -0.5625 v -0.375 h -0.375 z m -3.9375,0.5625 h 0.5625 v 0.375 l -0.5625,-0.1875 z m -8.25,2.0625 v 0.1875 l 0.75,-0.1875 q 0.5625,0 0.5625,0.5625 l 0.1875,0.1875 h 0.375 l 0.375,-0.375 v -0.375 q -1.125,0 -1.125,-0.9375 h -0.1875 z m 11.625,-0.9375 -0.1875,0.1875 v 0.75 h 0.5625 v -0.5625 z m -4.3125,2.625 v 0.5625 h 0.375 v -0.5625 z m 6.375,0.375 v 0.1875 l 0.375,0.5625 -0.5625,0.75 h 1.5 v -0.5625 l -0.75,-0.9375 z m 1.5,0.75 v 0.75 h 0.1875 l 1.5,-0.1875 v -0.5625 h -1.125 l -0.1875,0.1875 h -0.1875 z m 2.0625,0.9375 q 0,0.5625 -0.375,0.5625 l -0.9375,-0.1875 v 0.5625 q 0,0.375 0.5625,0.375 l 0.5625,-0.1875 v 0.1875 l -0.1875,0.5625 1.125,0.375 0.1875,-0.1875 v -0.375 q -0.5625,-0.65625 -0.75,-1.6875 z m 0.1875,2.8125 v 0.1875 l 0.375,0.375 v -0.5625 z m -0.1875,0.9375 -0.1875,0.5625 h 0.375 l 0.375,-0.375 v -0.1875 z m -1.3125,1.3125 v 0.1875 h 1.125 v -0.375 l -0.375,-0.375 z m -1.875,-0.375 v 0.5625 l 0.375,0.375 h 0.5625 v -0.375 l -0.5625,-0.5625 z m -18.9375,1.125 v 0.5625 h 0.375 v 0.1875 l 0.75,-0.5625 v -0.5625 h -0.75 z m 2.625,1.3125 v 0.1875 l 0.375,0.375 h 0.1875 l 0.375,-0.375 -0.1875,-0.1875 z m 15.5625,0.75 v 0.5625 h 0.1875 l 0.375,-0.375 -0.1875,-0.1875 z m -20.0625,0.5625 v 0.1875 l 5.625,1.875 v -0.375 z" stroke-width="0" stroke-linejoin="miter" stroke-miterlimit="2" fill="#cce7f9" stroke="#cce7f9" transform="translate(0 270.046796875) translate(417.72265625 48.93359375) scale(1.25) translate(-441.64062 59.578125)"></path>
        <path id="path333762" style="font-style:normal;font-weight:400;font-size:72px;line-height:1;font-family:Boycott;font-variant-ligatures:none;text-align:center;text-anchor:middle" d="m 475.4375,-73.40625 0.75,0.1875 v 0.375 l -0.375,0.375 q -0.9375,-0.234375 -0.9375,-0.5625 v -0.1875 z m -3.1875,0.375 0.75,0.1875 v 0.1875 q 0,0.375 -2.625,0.75 v -0.1875 q 0,-0.421875 1.875,-0.9375 z m 7.125,0.1875 0.375,0.375 -0.1875,0.1875 v 0.1875 L 479,-72.28125 v -0.1875 z m -1.125,0.1875 h 0.5625 l 0.1875,0.9375 h -0.5625 z m 2.25,0.1875 h 0.5625 l -0.375,0.375 H 480.5 Z m 7.125,1.6875 0.1875,0.1875 v 0.1875 l -1.5,0.75 -0.1875,-0.1875 h -0.1875 l -1.125,0.1875 -0.9375,-0.375 v -0.1875 l 0.1875,-0.1875 v -0.1875 l 0.1875,0.1875 h 0.5625 l 1.125,-0.1875 0.5625,0.1875 z m 4.875,9.5625 q 4.45312,0 9.9375,2.625 L 503,-58.78125 q 0.51562,1.125 2.0625,1.125 l 0.1875,0.1875 v 0.1875 l -0.9375,0.75 q 1.64062,1.6875 2.25,1.6875 0,1.3125 1.875,1.3125 0.375,0.9375 1.3125,0.9375 l 0.375,-0.375 h 0.5625 l -0.75,1.125 0.5625,0.1875 v 0.375 h -0.375 q 0,0.5625 -1.3125,1.125 l -0.1875,-0.1875 h -1.3125 v 0.5625 q 0,0.5625 0.75,1.5 v 0.1875 q -0.46875,0.9375 -2.0625,0.9375 -0.375,0 -0.375,0.5625 l -0.1875,0.1875 h -2.8125 q -0.9375,0 -0.9375,0.375 l -0.1875,-0.1875 h -0.1875 l -1.125,0.375 v -0.1875 L 500,-45.84375 h -1.125 v -0.375 l 0.1875,-0.9375 q -0.46875,0 -1.3125,-3 -0.60938,-1.453125 -4.125,-3 v -0.1875 l -0.9375,0.1875 q -1.125,-0.515625 -1.125,-1.5 l 0.1875,-1.6875 -0.1875,-0.9375 0.375,-0.375 v -0.375 q -0.5625,-0.703125 -0.5625,-1.3125 v -1.3125 q 0,-0.328125 1.125,-0.5625 z m -3.75,0.75 h 0.375 l 0.9375,1.125 q -0.14063,2.015625 -0.5625,2.4375 l 0.5625,0.75 -0.1875,0.1875 v 0.1875 l 0.375,1.125 -0.1875,0.5625 0.1875,0.9375 q 0,1.21875 -1.5,4.125 -0.375,0.75 -0.375,2.4375 v 0.375 q 0,2.25 2.0625,7.125 l -0.375,0.375 q -0.375,0 -0.375,-0.5625 h -0.375 l -0.1875,0.1875 h -0.1875 q -0.14063,-0.9375 -0.5625,-0.9375 -0.60938,0 -0.9375,1.875 l 0.5625,0.1875 v -0.1875 l 0.1875,0.1875 h 1.125 l 0.1875,0.75 -0.1875,0.1875 0.1875,0.9375 v 1.5 l 0.5625,0.1875 0.1875,-0.1875 v 0.9375 l -0.5625,0.5625 v -0.375 H 489.5 v 0.5625 l 0.1875,1.125 q -0.23438,3 -0.75,3 -5.20313,-4.40625 -7.3125,-7.875 -0.9375,-1.546875 -0.9375,-4.3125 v -0.5625 l -0.375,-0.375 v 1.5 h -0.1875 q -0.9375,0 -1.125,-4.875 l 1.125,-0.375 -0.1875,0.1875 v 0.375 l 0.1875,0.1875 v 0.1875 l -0.375,0.375 v 0.1875 h 0.375 v 0.9375 l 0.375,0.375 v -0.1875 l -0.1875,-1.6875 0.375,-0.375 q -0.375,-0.328125 -0.375,-1.875 l -0.1875,-0.1875 h -0.1875 l -0.1875,1.125 q -0.9375,-0.46875 -0.9375,-1.875 0.375,-0.515625 0.5625,-2.8125 h 0.375 l -0.1875,0.5625 0.375,2.4375 h 0.1875 l 0.375,-2.25 -0.375,-0.75 q 0,-2.203125 0.9375,-3.375 l 0.1875,0.1875 h 0.5625 l -0.1875,-1.3125 q 2.15625,-3.421875 6.375,-5.0625 z m -1.6875,2.625 v 0.5625 l 0.5625,0.5625 0.375,-0.5625 -0.1875,-0.9375 h -0.375 z m -1.3125,0.1875 v 0.1875 h 0.75 v -0.1875 l -0.375,-0.375 z m 9.75,1.3125 -0.1875,-0.1875 h -0.375 q -1.6875,0.328125 -1.6875,0.75 v 0.375 l 1.3125,0.1875 1.875,-1.125 1.125,0.1875 h 0.1875 l -1.5,-0.75 h -0.1875 z m -12.1875,1.875 v 0.1875 q 0,0.421875 2.0625,0.9375 l -0.1875,-0.1875 v -0.5625 l 0.1875,-0.1875 v -0.1875 l -0.375,-0.375 v -0.5625 l 0.1875,-0.1875 v -0.1875 h -0.375 q -1.07813,0.609375 -1.5,1.3125 z m 24.75,-0.75 h 0.5625 v 0.1875 l -0.375,0.375 -0.1875,-0.1875 z m 6.75,2.0625 H 515 l 1.3125,0.375 v 0.375 H 515.75 Z m 4.125,0.1875 1.875,0.375 v 0.375 H 519.5 v 0.375 h -0.375 L 518,-52.78125 Z m -7.3125,0.1875 1.125,0.1875 0.1875,-0.1875 h 0.1875 l 0.1875,0.75 h 0.5625 q 0,-0.5625 0.375,-0.5625 v 0.1875 l -0.1875,0.1875 0.375,0.75 -0.375,1.125 v 0.9375 h -0.1875 q -0.89063,-0.1875 -2.0625,-2.0625 l 0.5625,-0.1875 v -0.1875 l -0.375,-0.375 -0.1875,0.1875 -0.5625,-0.1875 v -0.1875 z m 5.8125,0 -0.375,0.375 H 516.5 v -0.1875 z m 4.875,0.1875 h 0.375 l 0.375,0.375 -0.1875,0.1875 h -0.1875 l -0.75,-0.1875 z m -11.625,0.9375 h 0.5625 l 0.375,0.375 -0.9375,0.1875 z m -24.375,0.5625 v 0.5625 h 0.375 v -0.5625 z m 12.75,0 v 0.5625 h 0.1875 l 0.375,-0.375 v -0.1875 z m 29.0625,1.3125 0.5625,0.5625 v 0.375 l -0.9375,-0.1875 v -0.375 z m -2.4375,3.375 q 1.125,0.1875 1.125,0.5625 l -0.1875,0.1875 h -0.375 l -0.5625,-0.5625 z m 0,1.875 h 0.75 v 0.375 l -2.25,0.1875 h -0.5625 l -0.375,1.3125 h -0.1875 l -1.125,-1.125 q 0.5625,-0.75 3.75,-0.75 z m -4.5,0.75 h 0.375 v 0.75 l -0.375,0.375 h -0.5625 v -0.375 l -1.3125,0.375 -0.1875,-0.1875 v -0.1875 l 1.875,-0.5625 z m 2.625,0.5625 0.5625,0.1875 v 0.375 h -0.75 v -0.1875 l 0.1875,-0.1875 z M 482,-40.78125 v 0.5625 h 0.375 l 0.375,-0.375 v -0.1875 z m 38.4375,1.3125 q 0,0.796875 2.0625,1.875 l 0.375,-0.375 1.5,0.1875 v -0.75 l 1.125,0.1875 0.5625,-0.1875 0.1875,0.1875 v 0.1875 l -2.0625,1.125 H 523.25 l -0.1875,0.5625 -0.5625,-0.375 -0.1875,0.1875 -1.125,-0.1875 -2.0625,0.1875 -0.375,-0.375 h -0.1875 v 0.9375 l -1.5,-0.375 -0.375,0.375 -0.1875,-0.1875 h -0.1875 l -0.75,0.1875 -2.0625,-0.9375 v 0.1875 l 0.1875,0.75 v 0.1875 l -0.1875,0.1875 0.1875,0.5625 3,-0.375 0.5625,0.1875 v 0.375 q -2.625,0.234375 -2.625,0.75 l -0.9375,-0.1875 -1.125,0.375 -0.9375,-0.1875 v 0.9375 l -0.9375,-0.1875 H 510.5 q -1.3125,1.171875 -1.3125,2.0625 l -0.9375,-0.1875 0.375,1.125 -0.9375,0.1875 q -0.5625,-0.1875 -0.5625,-1.125 l 0.9375,-0.75 0.5625,0.1875 0.5625,-2.625 -0.1875,-0.1875 v -0.1875 l 0.1875,-0.75 1.3125,0.1875 v -0.375 l 0.9375,0.1875 q 0,-0.75 0.5625,-0.75 l 0.9375,-0.75 -0.375,-0.375 v -0.1875 l 0.5625,-0.1875 0.5625,0.1875 0.375,-0.75 h 0.1875 l 0.1875,0.9375 -0.1875,0.5625 0.1875,0.1875 h 0.1875 l 0.1875,-0.1875 0.375,0.375 h 0.75 l 2.25,-1.3125 v -0.375 L 518,-38.53125 v -0.1875 z m 1.125,0 h 0.1875 q 1.125,0 1.125,1.125 v 0.1875 h -0.5625 l -0.75,-0.9375 z m -30.375,0.9375 1.125,1.5 -1.5,1.3125 q -0.42188,0 -0.75,-1.875 z m 17.625,1.5 v 0.5625 h -0.375 v -0.1875 z m 11.4375,0.75 0.1875,0.1875 h 0.1875 l 1.125,-0.1875 q 0,0.421875 0.5625,0.375 l 2.4375,-0.1875 q 0,1.078125 -2.4375,1.5 l -0.5625,-0.1875 -1.5,0.5625 h -0.75 q -1.21875,0 -1.5,-0.75 h -0.375 v -0.1875 l 1.3125,-0.75 h 0.375 q 0,0.5625 0.375,0.5625 h 0.1875 q 0,-0.9375 0.375,-0.9375 z m 4.875,0 h 0.5625 l 0.1875,0.1875 v 0.1875 h -0.1875 l -0.5625,-0.1875 z m -13.3125,1.125 0.9375,0.5625 0.1875,-0.1875 v -0.375 l -0.375,-0.375 h -0.375 z m -19.125,0 h 0.1875 v 0.1875 l -0.375,0.375 h -0.1875 v -0.1875 z m -17.625,0.1875 v 0.5625 h -0.375 v -0.1875 z m 20.0625,0.375 h 0.375 q 6.28125,4.875 9.375,9.5625 0,0.46875 1.6875,2.8125 l 0.1875,1.125 q 0,0.9375 -1.3125,0.9375 v 0.1875 l 0.9375,0.5625 h 0.5625 v -0.375 q 1.07812,0 1.3125,5.25 0.1875,4.3125 -3.1875,9.9375 -0.75,0 -0.9375,0.75 l -0.1875,-0.1875 h -0.5625 l 0.1875,0.9375 q -3.84375,2.8125 -5.4375,2.8125 l -0.1875,-0.1875 H 497.75 l -0.75,0.1875 h -0.1875 v -0.5625 l -0.75,0.9375 H 494.75 l -0.5625,-0.375 -1.125,0.375 -0.375,-1.3125 0.375,-0.5625 q -0.75,-1.03125 -0.75,-2.8125 0,-3.5625 1.125,-3.5625 2.15625,0 4.5,-2.0625 1.03125,2.53125 1.5,2.8125 v -0.375 q -0.9375,-2.390625 -0.9375,-3.9375 0.5625,-0.796875 0.5625,-4.125 h -0.1875 l 0.1875,-0.1875 v -0.1875 q -1.03125,-3.609375 -3,-5.625 l 0.1875,-0.9375 v -0.375 q -0.75,0 -0.75,-1.5 l -0.1875,-0.5625 h -0.1875 l 0.375,-2.0625 -0.375,-0.375 v -1.125 q 0,-1.59375 1.6875,-2.25 L 497,-31.21875 v -0.1875 l -0.1875,-0.5625 h 0.5625 v -0.5625 q -1.54688,0 -2.25,-2.0625 z m -4.5,3.75 H 491 q 2.0625,1.21875 2.0625,3.375 l 0.1875,0.1875 v 0.375 q -0.375,0 -0.375,0.5625 l -0.1875,0.75 -0.1875,0.1875 h -0.1875 l -2.25,-2.25 v -0.375 h 1.125 v -0.375 q -0.9375,-0.890625 -0.9375,-2.0625 z m 10.875,4.5 v 0.1875 h 0.375 l 0.1875,-0.1875 h 0.1875 l -0.1875,-0.5625 z m 1.3125,0.75 v 0.1875 l 0.375,0.375 v -0.5625 z m -6.75,0.5625 -0.375,0.75 0.5625,0.1875 0.1875,-0.1875 v -0.375 z m 1.3125,1.125 -0.375,0.5625 v 0.375 l 0.375,0.375 h 0.5625 l 0.75,-0.375 q -0.28125,-0.9375 -1.3125,-0.9375 z m 3,0.5625 v 0.1875 l 0.75,0.75 h 0.375 v -0.75 z m 5.0625,1.3125 -0.1875,0.5625 h 0.1875 l 0.375,-0.375 v -0.1875 z m 0.75,3.375 v 0.5625 l 0.375,-0.375 v -0.1875 z m -19.5,1.125 q 0.5625,-0.04687 0.5625,0.9375 l 0.75,0.5625 -0.5625,0.1875 q 0,3 2.0625,6.1875 v 0.375 l -0.1875,1.125 0.375,1.6875 -0.375,2.625 0.1875,0.5625 -0.75,1.875 h -0.1875 l -1.125,-0.5625 -0.1875,0.5625 h -0.1875 q -2.625,-0.75 -4.3125,-3.375 l 0.1875,-1.125 -0.375,-0.375 h 0.1875 l 0.5625,0.375 0.1875,-0.1875 h 0.1875 q -0.32813,-0.84375 -1.125,-1.3125 h -0.1875 q -0.375,0 -0.375,1.125 h -0.375 q -1.59375,-1.640625 -2.8125,-6.1875 l 0.375,-0.375 q -0.75,-0.1875 -0.75,-1.125 v -0.1875 q 0,-2.0625 1.125,-2.0625 0.9375,0 0.9375,-0.75 l 0.1875,0.1875 h 0.1875 l 2.0625,-0.375 0.75,0.1875 q 0.51562,-0.421875 3,-0.5625 z m 19.5,0.375 v 0.1875 l 0.1875,0.5625 h 0.5625 v -0.1875 z m -22.5,0.5625 v 0.9375 h 0.375 v -0.5625 z m 17.625,0.5625 v 0.375 l 0.375,0.375 1.125,-0.9375 -0.375,-0.375 h -0.5625 z m -20.4375,1.3125 v 0.5625 h 0.375 v -0.5625 z m 0.75,1.5 v 0.5625 H 482 v -0.5625 z m 23.8125,0.375 v 0.375 H 506 v -0.375 z m -1.5,0.1875 v 0.5625 H 504.5 v -0.1875 l -0.375,-0.375 z m -19.3125,0.375 0.1875,1.3125 H 485 l 0.1875,-0.9375 -0.375,-0.375 z m 15.75,2.25 v 0.375 h 0.5625 v -0.375 z m -0.375,1.125 v 0.375 h 0.1875 l 0.375,-0.375 z m -5.4375,2.4375 v 0.1875 l 0.375,0.375 0.1875,-0.1875 v -0.1875 l -0.1875,-0.1875 z m 1.125,3.75 -0.1875,0.9375 v 0.75 h 0.1875 l 0.375,-0.375 v -1.3125 z m -6.9375,1.875 h 0.1875 l 0.375,0.375 h -0.1875 z m 0,1.6875 0.375,0.375 v 0.1875 h -0.375 z" stroke-width="0" stroke-linejoin="miter" stroke-miterlimit="2" fill="#b4dcf8" stroke="#b4dcf8" transform="translate(0 270.046796875) translate(453.64063124999996 31.6484375) scale(1.25) translate(-470.375 73.40625)"></path>
        <path id="path333764" style="font-style:normal;font-weight:400;font-size:72px;line-height:1;font-family:Boycott;font-variant-ligatures:none;text-align:center;text-anchor:middle" d="m 525.82812,-61.875 h 0.5625 q 0.1875,2.25 0.75,2.25 h 0.5625 l 2.625,0.1875 0.5625,-0.1875 0.75,0.75 2.625,-0.5625 h 1.125 l 3.9375,-0.1875 2.8125,0.1875 1.125,-0.1875 0.9375,0.1875 0.1875,-0.1875 h 0.1875 q 1.6875,0 1.6875,1.5 0.32813,0 0.5625,1.5 0.9375,0.234375 0.9375,0.5625 0,0.28125 -1.3125,0.75 v 0.1875 l 2.0625,0.75 -0.1875,0.5625 q 0.75,0.328125 0.75,0.75 h 0.1875 l 0.9375,-0.1875 0.1875,0.1875 -0.375,0.75 0.1875,0.1875 h 0.1875 q 0,-0.609375 2.25,-1.5 l 1.5,0.75 0.75,-0.1875 q 0.42188,0.796875 0.9375,0.9375 l 0.75,-0.1875 0.1875,0.1875 q -0.375,0.984375 -0.9375,1.125 l -3,-0.1875 -1.5,0.1875 v 0.1875 q 0,0.890625 2.625,1.125 l 0.375,-0.375 h 0.1875 v 0.1875 l -0.75,1.125 0.1875,0.1875 v 0.1875 l -0.375,0.375 v 0.1875 h 0.375 v 0.1875 q 1.3125,0 1.3125,-1.5 l -0.1875,-0.9375 0.375,-0.375 0.5625,0.1875 v 0.9375 q 0.375,0.75 1.125,0.75 0.32813,-0.75 1.125,-0.75 v -0.375 l -1.125,-1.875 q 0.51563,-0.9375 1.875,-0.9375 0,-0.375 1.125,-0.375 l 0.75,-1.125 h 0.75 l 0.1875,1.3125 h 0.375 q 0.32813,0 0.5625,-0.9375 l 2.25,-0.375 q 1.6875,0.421875 1.6875,0.75 0,1.125 -2.0625,1.125 l -0.75,0.75 0.9375,0.375 v 0.1875 q -0.98437,0 -1.125,0.9375 h -0.9375 q -1.6875,0 -1.6875,-0.9375 h -0.375 l -0.5625,0.375 -0.5625,-0.5625 h -0.1875 l -0.1875,1.3125 q 0,0.375 1.125,0.5625 v 0.9375 l 0.1875,1.3125 -0.75,0.375 -0.5625,-0.1875 -0.5625,0.1875 -1.125,-0.1875 -0.375,0.75 v 0.375 l 0.375,0.5625 v 0.1875 l -3.5625,0.375 -1.3125,-0.9375 h -0.1875 q -2.0625,0.5625 -2.0625,1.6875 l -0.9375,0.1875 -0.75,-0.375 q 0.375,-0.9375 1.125,-0.9375 l 0.1875,-0.9375 -0.1875,-1.125 1.3125,-0.9375 v -1.125 l -0.5625,-0.1875 -0.1875,0.1875 h -0.1875 l -1.3125,-0.75 -1.125,0.375 -1.3125,-0.375 -0.9375,0.375 -1.6875,-0.1875 -0.9375,0.1875 q 0,-0.890625 -3.1875,-0.9375 -3.1875,-0.04687 -3.1875,0.9375 v 0.375 h 0.1875 l -0.1875,1.875 v 1.875 l -0.1875,0.1875 0.1875,0.5625 0.1875,7.125 h 0.1875 l -0.1875,0.1875 V -36 l 0.1875,0.5625 -0.1875,0.9375 v 1.5 l 0.1875,0.1875 q -0.23437,3 -0.9375,3 v 0.5625 q 0.75,0.09375 0.75,0.5625 v 0.5625 l -0.375,0.375 h -0.375 l -0.5625,-2.0625 h -0.375 l -2.0625,0.75 v 0.1875 q 0.70313,0.5625 1.3125,0.5625 v 0.1875 q -0.23437,0.375 -4.125,1.3125 V -27 l -1.5,0.9375 h -0.75 V -26.25 l 0.5625,-0.75 q -0.9375,-0.234375 -0.9375,-0.5625 V -28.5 l 0.1875,-0.9375 q 0.84375,0 1.6875,0.5625 l 1.125,-0.1875 0.5625,0.5625 h 0.375 l 0.375,-0.375 q -1.3125,-1.3125 -2.8125,-1.3125 l -1.125,0.375 -0.375,-0.5625 v -2.25 l 0.1875,-2.8125 -0.1875,-0.9375 0.1875,-2.25 h -0.1875 l 0.1875,-0.5625 -0.1875,-0.9375 0.1875,-0.9375 -0.1875,-0.9375 0.1875,-0.9375 -0.1875,-2.25 q -0.14062,-1.875 1.125,-1.875 v -0.75 q -0.75,0 -1.3125,-2.25 l 0.1875,-0.5625 -0.1875,-0.1875 h -0.5625 l -0.5625,0.375 q -1.6875,0 -1.6875,-1.125 l 0.75,-0.5625 -0.375,-0.375 v -0.1875 q 0,-1.453125 1.125,-1.6875 l -0.1875,-0.1875 v -0.375 q 0,-0.375 0.75,-0.375 L 527.14062,-57 h -0.1875 l -0.1875,0.1875 -0.5625,-0.1875 v -0.375 l 0.1875,-0.1875 V -57.75 l -0.1875,-0.1875 Q 523.625,-55.5 523.01562,-55.5 v -0.1875 l -0.375,-0.375 h -0.1875 q 0,0.75 -0.75,0.75 l -0.5625,0.75 0.5625,0.5625 h 0.9375 q 0.0937,-0.75 0.5625,-0.75 h 0.5625 l 0.1875,0.9375 -0.75,0.75 0.1875,0.9375 h 0.1875 q 0.375,0 0.375,-0.75 0.32813,0 0.5625,1.3125 h -0.375 l -0.1875,-0.1875 h -0.1875 l -0.5625,1.3125 q -1.125,-0.1875 -1.125,-0.9375 h -0.1875 l 0.1875,-0.9375 V -52.5 q -1.125,0 -1.125,-0.75 v -0.375 h -0.5625 l -0.5625,0.5625 1.125,0.5625 q 0,0.5625 -0.5625,0.5625 v 0.1875 q 0.75,0 0.75,1.125 -0.79687,0.375 -3,0.375 l -0.375,-1.125 q 0.375,0 0.375,-1.125 l 1.3125,-0.375 v -1.3125 l 0.75,-0.75 0.5625,0.1875 q 0,-0.890625 1.5,-2.0625 l -0.375,-0.375 q -1.125,0.328125 -1.125,1.6875 h -0.1875 l -0.375,-0.375 v -0.375 l 0.375,-0.5625 -0.1875,-0.1875 0.1875,-0.1875 V -57.75 q -2.625,-0.28125 -2.625,-0.9375 0,-0.515625 1.3125,-0.75 l 1.125,0.375 -0.1875,0.5625 0.1875,0.1875 h 0.375 l 1.6875,-0.75 0.5625,0.1875 v 0.5625 h -0.9375 v 0.1875 l 0.375,0.375 h 1.5 q 0,-0.75 0.375,-0.75 0,0.5625 0.5625,0.5625 l 1.3125,-0.75 z m 2.8125,2.8125 v 0.375 h 0.375 l 1.6875,0.375 0.1875,-0.1875 v -0.1875 q 0,-0.375 -1.125,-0.375 V -59.25 Z m -1.3125,5.625 q 0.1875,0.75 1.125,0.75 h 0.1875 q 0,-0.375 0.5625,-0.375 l 0.1875,-0.1875 v -0.1875 l -0.1875,-0.1875 -0.75,0.1875 -1.125,-0.1875 z m 1.5,0.75 V -52.5 l 0.375,0.375 v -0.5625 z m 4.875,1.3125 -0.1875,1.125 h 0.375 l 0.1875,-1.125 z m -4.5,1.875 q 0.46875,0.796875 1.3125,1.125 1.3125,-0.5625 1.3125,-1.6875 -0.5625,0 -0.5625,-0.5625 l 0.1875,-0.5625 h -0.5625 q -1.21875,0.5625 -1.6875,1.6875 z m 19.125,-1.5 0.375,0.375 h 0.375 v -0.1875 L 548.89062,-51 v -0.1875 z m 10.125,0.5625 v 0.375 h 0.5625 v -0.375 z m -30,0.75 V -49.5 l 0.375,0.375 v -0.5625 z m 18.375,1.125 V -48 h -0.1875 l -0.375,-0.375 0.1875,-0.1875 z m 5.0625,1.3125 v 0.375 q 1.3125,0.234375 1.3125,0.9375 h 0.5625 V -46.5 q -0.5625,0 -0.5625,-0.5625 l -0.75,-0.375 z m -22.3125,0.1875 V -46.5 h 0.5625 v -0.5625 z m 26.0625,0.9375 -0.1875,0.1875 v 0.1875 q 0.1875,0.5625 1.125,0.5625 v -0.375 q 0,-0.421875 -0.9375,-0.5625 z m 7.3125,1.6875 h 2.625 l 0.75,0.375 0.5625,-0.1875 1.875,0.375 q -0.32812,1.125 -1.3125,1.125 l -1.125,0.1875 V -42.75 l 0.375,-0.5625 h -0.5625 l -0.375,0.375 v 0.1875 q -0.84375,-0.5625 -2.25,-0.75 l -0.1875,-0.1875 -0.75,0.1875 -0.5625,-0.1875 V -44.25 Z m -11.4375,0.1875 h 1.5 v 0.375 h 1.125 v 0.1875 q 0,1.125 -2.4375,1.125 l -0.375,-0.375 0.375,-0.5625 -0.1875,-0.1875 z m -21.1875,6.375 0.1875,0.5625 h 0.375 v -0.5625 z m 1.3125,5.8125 0.1875,0.5625 h 0.375 l 0.375,-0.375 v -0.375 h -0.5625 l -0.1875,0.1875 z m 3.75,4.3125 h 0.375 q -1.64062,1.265625 -1.6875,2.25 h 0.75 q 0,-1.3125 1.125,-1.3125 h 0.5625 l 0.1875,0.5625 -0.1875,0.9375 0.1875,0.75 q -0.28125,0.9375 -1.3125,0.9375 h -1.3125 l -2.25,-0.5625 v 0.9375 l -2.625,0.375 v 0.375 l 2.625,0.375 v -0.1875 l 0.75,0.375 q 0,-1.171875 3.9375,-1.6875 l 0.1875,1.125 -0.5625,0.1875 v 0.5625 q 0.51563,0 0.5625,0.5625 l 0.1875,3.9375 -0.1875,1.5 0.1875,4.125 v 2.25 l -0.375,0.5625 0.1875,1.3125 -0.5625,0.5625 q 0.75,0.09375 0.75,0.5625 v 1.125 l -0.1875,1.5 0.1875,1.5 -0.1875,0.9375 0.1875,0.1875 v 0.1875 l -0.1875,1.125 h -1.125 l -0.75,0.1875 -0.1875,-0.1875 h -0.1875 l -2.625,0.1875 -1.5,-0.1875 V 0.375 l -0.1875,-0.1875 -1.3125,0.1875 h -0.5625 q -0.375,0 -0.375,-1.875 h -0.1875 l 0.1875,-0.1875 V -3.75 l -0.1875,-1.125 q 0,-2.25 1.3125,-2.25 l 0.75,0.1875 0.1875,-0.1875 V -7.5 h -0.1875 l -1.6875,0.1875 -0.375,-0.5625 v -7.875 l 0.1875,-1.6875 -0.1875,-1.3125 v -0.1875 l 0.375,-1.3125 -0.375,-0.375 v -0.1875 l 0.375,-1.125 h -0.1875 l 0.1875,-0.1875 V -22.5 l -0.375,-0.5625 v -1.5 l 1.3125,-0.1875 h 0.1875 v 0.1875 l -0.75,0.9375 v 0.1875 h 1.875 v -0.1875 l -0.1875,-0.9375 0.5625,-0.1875 0.5625,0.1875 0.1875,-0.1875 v -0.1875 l -0.1875,-1.125 V -26.25 h 0.5625 z m -4.5,1.6875 h 0.1875 v 0.375 l -0.5625,0.1875 v -0.1875 z m 0.9375,0.75 v 0.375 l 0.1875,0.1875 v 0.1875 l 0.9375,-0.1875 q -0.1875,-0.5625 -1.125,-0.5625 z m 1.875,0 -0.1875,0.5625 h 0.5625 v -0.1875 z m -4.3125,15 -0.5625,-0.1875 v 0.375 l 1.125,0.1875 0.5625,-0.1875 v -0.5625 z m 1.5,2.0625 -0.1875,0.1875 v 0.375 l 0.1875,0.1875 q -0.0937,0.75 -0.5625,0.75 v 0.375 l 0.375,0.75 h 0.5625 l -0.375,-1.5 h 1.125 z m 2.25,0.75 -0.375,0.5625 0.1875,0.1875 v 0.1875 l -0.1875,0.75 h 0.375 l 0.5625,-0.75 q 1.6875,0 1.6875,-0.5625 v -0.1875 h -0.375 z" stroke-width="0" stroke-linejoin="miter" stroke-miterlimit="2" fill="#9bd2f6" stroke="#9bd2f6" transform="translate(0 270.046796875) translate(512.87890625 46.0625) scale(1.25) translate(-517.76562 61.875)"></path>
        <path id="path333766" style="font-style:normal;font-weight:400;font-size:72px;line-height:1;font-family:Boycott;font-variant-ligatures:none;text-align:center;text-anchor:middle" d="m 559.57812,-61.078125 q 1.03125,0.75 3.1875,0.75 l 0.5625,-0.1875 q 2.0625,0.46875 2.0625,1.125 l -0.1875,0.5625 0.1875,2.0625 v 0.5625 q 0,2.25 -0.5625,2.25 l 0.375,2.4375 v 2.4375 q 0,1.875 -0.375,1.875 l 0.1875,0.9375 v 1.3125 l 0.1875,0.1875 v 0.1875 l -0.375,0.375 v 0.75 l 0.1875,0.9375 -0.375,0.375 0.9375,0.9375 h 0.1875 q 0.375,0 0.375,-0.5625 l 0.1875,-0.1875 h 0.1875 l 0.5625,0.5625 -0.1875,0.1875 v 0.1875 l -0.1875,-0.1875 h -0.375 l -0.375,0.375 v 0.375 h 1.3125 v 0.1875 q -0.14062,0.65625 -1.125,1.125 h -0.1875 l -0.375,-0.375 h 0.1875 q -0.42187,-1.125 -0.75,-1.125 l -0.5625,0.375 0.1875,0.9375 v 0.375 l -0.1875,1.6875 0.375,0.9375 q -0.46875,0.5625 -1.5,0.5625 v 0.1875 l 0.5625,1.6875 -0.1875,1.125 q 0.60938,0 0.9375,2.625 h 0.1875 q 0,-1.125 0.375,-1.125 l 1.3125,0.1875 v -0.1875 l -0.9375,-2.8125 q 2.10938,0 2.625,3.375 h 0.1875 q 1.875,0 1.875,-1.5 0,-1.3125 1.5,-2.0625 l 0.375,-0.75 2.4375,-0.1875 2.8125,0.5625 0.75,-0.1875 q 1.125,0.1875 1.125,0.5625 0,0.890625 -1.125,1.5 l -0.5625,-0.375 h -0.1875 l -0.375,0.375 v 0.5625 l 0.375,0.5625 v 0.375 q -0.5625,0 -0.5625,1.3125 -1.125,0 -1.5,2.4375 -1.3125,1.828125 -1.6875,1.875 l -0.75,-0.5625 -0.375,0.375 h -0.1875 q -2.0625,0 -2.0625,-3.375 0,-1.3125 -0.375,-1.3125 h -0.9375 q -1.3125,0.421875 -1.3125,2.625 l 0.1875,1.6875 q -0.79687,0.75 -1.5,0.75 -1.3125,0 -1.3125,-1.6875 l -0.1875,-1.125 h -0.1875 l -0.375,2.25 0.1875,0.5625 -0.375,0.75 0.375,2.25 -0.1875,0.1875 v 0.1875 l 0.1875,0.75 -0.1875,2.0625 q 0.14063,1.125 0.375,1.125 l -0.1875,0.1875 v 0.1875 l 0.1875,0.9375 q -0.14062,1.125 -0.375,1.125 l 0.375,2.8125 -0.1875,2.0625 0.1875,0.1875 h -0.1875 l 0.375,1.3125 -0.1875,2.4375 h 0.1875 l -0.9375,2.25 q 2.25,2.484375 2.25,3.5625 0,0.9375 -2.625,0.9375 h -5.8125 l -0.5625,-0.375 h -0.375 l -0.1875,0.1875 h -0.1875 l -0.375,-0.5625 v -0.5625 h 0.1875 l 0.9375,0.1875 v -0.75 l -0.5625,-2.25 0.5625,-0.5625 q 0,-0.9375 -1.125,-1.3125 v -0.1875 q 0.9375,0 0.9375,-0.375 v -0.375 q -0.70312,0 -1.125,-2.4375 l 0.1875,-0.1875 v -0.1875 l -0.1875,-0.9375 0.1875,-1.6875 -0.1875,-1.6875 0.1875,-0.1875 v -0.1875 l -0.1875,-0.75 v -0.375 h 0.5625 v -0.375 l -0.75,-0.1875 0.1875,-0.9375 -0.1875,-3.5625 0.375,-1.6875 -0.375,-1.5 0.75,-1.125 v -0.1875 l -0.5625,-0.9375 0.375,-4.5 q -0.375,0 -0.5625,-1.125 l 0.5625,-2.625 -0.5625,-0.1875 v -0.375 q 0,-0.375 0.5625,-0.375 l 0.1875,-0.1875 v -0.375 q 0,-0.46875 -1.5,-0.75 v -0.375 q 0.51563,0 0.75,-4.125 l -0.1875,-0.75 0.1875,-0.5625 q -0.75,-0.28125 -0.75,-0.5625 l 0.5625,-0.9375 v -0.5625 q 0,-0.46875 -0.75,-0.5625 v -0.1875 q 0.75,0 0.75,-0.375 v -2.4375 l -0.1875,-0.1875 0.1875,-0.1875 v -4.3125 l -0.375,-1.5 0.375,-0.5625 -0.1875,-0.5625 0.1875,-2.25 -0.1875,-0.75 0.1875,-0.75 v -0.1875 l -0.1875,-0.1875 v -0.1875 l 0.5625,-0.375 h 1.875 q 0.79688,0 1.875,-0.9375 z m 18.75,0.5625 0.75,0.375 0.5625,-0.1875 0.5625,0.75 0.375,-0.75 1.125,0.375 0.9375,-0.1875 q 1.3125,0 1.3125,0.9375 h 0.375 l 0.5625,-0.375 h 0.1875 l 0.1875,0.9375 q -0.89062,0 -1.875,0.75 l 0.375,0.75 1.3125,-0.1875 h 0.375 l 0.9375,0.375 v 0.375 q -0.0937,0.5625 -1.5,0.5625 0,-0.5625 -0.375,-0.5625 v 0.1875 l 0.375,0.5625 v 0.5625 h -1.125 v 0.1875 l 0.1875,0.75 -0.375,0.9375 q 0,0.515625 1.3125,0.9375 v 0.5625 h -0.1875 l -0.5625,-0.5625 q -0.32812,0 -1.5,1.6875 l -1.125,0.1875 -2.4375,-0.375 -1.875,0.1875 -0.1875,-0.1875 -0.9375,0.1875 h -1.6875 l -1.125,0.1875 -0.9375,-0.1875 -0.375,0.375 -0.5625,-0.375 h -0.375 q -0.79687,0.5625 -1.875,0.5625 v -0.1875 l -1.3125,0.5625 v -0.1875 l -0.1875,-0.75 0.1875,-0.75 q -0.375,-0.46875 -0.9375,-6.1875 l -0.1875,-0.1875 0.1875,-0.75 v -0.1875 l -0.1875,-0.1875 q 0.23438,-1.125 0.5625,-1.125 h 4.875 l 1.5,0.1875 1.5,-0.1875 h 0.375 l 2.25,0.1875 z m 4.875,1.125 v 0.375 h 0.5625 l -0.375,-0.375 z m 13.3125,-0.1875 h 0.375 v 0.5625 l -0.375,0.375 h -0.1875 z m -27.5625,1.3125 v 0.75 h 0.5625 v -0.375 l -0.375,-0.375 z m 24.5625,1.3125 h 0.1875 l 1.125,0.5625 0.1875,-0.5625 h 0.1875 l 0.5625,0.5625 v 0.1875 q 0,0.75 -3.1875,0.75 l -0.1875,-0.1875 v -0.1875 z m 8.625,0 h 0.375 q 0,1.125 -2.25,1.6875 -0.75,-0.5625 -2.4375,-0.5625 l -0.1875,-0.1875 v -0.5625 h 0.5625 v 0.375 q 3.9375,-0.375 3.9375,-0.75 z m -5.25,0.375 v 1.125 h -0.375 l -0.1875,-0.75 z m -40.125,0.375 -0.375,1.5 0.1875,0.1875 h 0.75 l 0.375,-1.125 h -0.1875 z m 33.5625,0 0.375,0.375 v 0.1875 h -0.75 v -0.1875 z m -29.0625,2.625 v 0.75 q 0.46875,0 1.125,-0.9375 l -0.1875,-0.5625 h -0.1875 z m -3.375,-0.5625 v 0.75 h 0.5625 v -0.375 l -0.375,-0.375 z m 32.0625,0 1.3125,0.1875 h 0.375 l 0.1875,0.5625 -1.3125,0.9375 h -0.375 v -0.375 h -0.1875 l 0.1875,-0.1875 v -0.1875 z m -3,1.125 0.9375,0.9375 -0.5625,0.1875 -0.9375,-0.1875 z m -27.75,0.375 v 0.1875 l 0.375,0.375 h 0.1875 v -0.5625 z m 1.875,5.25 -0.1875,1.125 h 0.1875 l 0.9375,-0.1875 0.75,0.1875 v -0.1875 q 0,-0.5625 -1.6875,-0.9375 z m -2.8125,1.125 h 0.1875 q 0,-0.375 0.9375,-0.375 l 0.1875,-0.1875 v -0.375 h -0.75 q -0.32812,0 -0.5625,0.9375 z m -0.5625,0.9375 v 0.5625 h 0.5625 v -0.1875 l -0.375,-0.375 z m 3.75,0.5625 0.1875,0.1875 h 0.375 v -0.5625 h -0.1875 z m 6.375,0.75 h 0.5625 q 0,0.5625 0.375,0.5625 l 1.125,-0.375 v 0.1875 l -0.75,0.5625 -0.1875,0.1875 v 0.1875 q -0.70312,-0.1875 -1.125,-1.3125 z m 2.0625,0.75 h 0.375 l 1.5,0.1875 v 0.375 h -1.6875 z m -9.9375,0.75 v 0.1875 q 0.1875,1.5 0.5625,1.5 h 0.375 l 0.75,-0.75 q -1.125,-0.9375 -1.6875,-0.9375 z m 2.25,0.375 v 0.1875 l 0.375,0.375 0.1875,-0.1875 v -0.375 z m 7.6875,-0.1875 h 0.1875 l 0.375,0.375 h -0.5625 z m -13.6875,2.8125 v 0.375 q 0,0.9375 0.75,1.125 l 0.375,-0.375 h 0.75 q 0.375,0 0.375,0.5625 l 0.375,-0.375 v -0.5625 q -0.9375,-0.140625 -0.9375,-0.5625 v -0.375 l 0.375,-0.5625 v -0.375 h -0.75 z m 4.5,0 -0.1875,0.1875 v 0.1875 q 0.14063,0.5625 1.5,0.5625 l 0.5625,1.5 q 1.125,-0.140625 1.125,-0.375 0,-1.546875 -1.3125,-2.0625 h -0.375 l -0.75,0.1875 z m -0.75,0.5625 -0.1875,0.1875 v 0.1875 l 0.1875,0.5625 h 0.5625 v -0.375 z m 0.75,1.3125 v 0.5625 l 0.5625,-0.5625 v -0.1875 z m -0.5625,2.25 -0.1875,0.1875 v 0.375 l 0.5625,0.5625 h 0.375 v -0.375 z m -2.0625,0.75 v 0.1875 l 1.125,1.125 -1.125,0.1875 v 0.1875 q 0.75,0.796875 0.75,1.5 v 0.9375 l 0.75,0.375 h 0.9375 l 0.75,-0.9375 -0.5625,-1.875 q -0.375,0 -0.375,-0.75 l -0.1875,-0.1875 h -0.1875 l -0.75,0.1875 q 0,-0.9375 -1.125,-0.9375 z m 17.625,0.1875 v 0.1875 l 0.1875,1.3125 q 1.3125,-0.703125 1.3125,-1.3125 l -0.1875,-0.1875 z m -19.3125,1.6875 0.375,2.25 h 0.375 l 0.375,-0.375 v -0.1875 l -0.5625,-0.9375 0.1875,-0.75 -0.1875,-0.1875 h -0.1875 l -0.1875,0.1875 z m 22.125,0.75 q 0.79688,0 0.9375,2.25 l -0.375,0.375 v 0.375 q 0,0.375 0.75,0.375 l -0.375,0.9375 h -0.5625 q -0.9375,-0.375 -0.9375,-1.3125 v -0.1875 l 0.75,-0.1875 v -0.1875 l -0.5625,-0.5625 -0.1875,0.1875 h -0.1875 v -0.375 q 0.98438,0 1.125,-0.5625 0,-0.375 -0.5625,-0.375 l -0.1875,-0.1875 v -0.1875 z m 2.0625,1.5 h 0.1875 v 0.1875 l -0.375,0.5625 v 0.1875 q 0,0.375 0.5625,0.375 l 0.1875,0.1875 v 0.1875 h -0.1875 q -0.75,0 -0.75,-0.9375 h -0.1875 z m -18,4.5 v 0.375 h 0.5625 v -0.375 z m -0.9375,1.875 v 0.375 q 0.5625,0 0.5625,0.9375 h 0.375 v -0.9375 z m 6,14.625 h 3.375 l 0.75,0.5625 1.125,-0.5625 0.75,0.1875 0.75,-0.1875 0.5625,0.1875 0.75,-0.1875 h 0.375 v 0.1875 l 2.25,-0.1875 h 2.8125 q 0.14063,1.3125 0.375,1.3125 l -0.1875,0.9375 v 1.3125 l -0.1875,0.1875 0.1875,0.1875 v 0.75 l -0.375,0.375 q -0.375,0 -0.375,-0.9375 h -0.5625 v 0.75 l -4.5,-1.5 v 0.375 q 2.25,0.609375 2.25,1.5 l -1.125,0.375 q 0.375,0.5625 0.75,3.5625 l -0.1875,0.1875 -0.5625,-0.1875 -0.9375,0.1875 -0.75,-0.1875 -1.125,0.1875 -0.75,-0.1875 -2.25,0.1875 q -1.125,0.09375 -2.25,-0.9375 -0.23437,0.84375 -0.75,0.9375 l -0.375,-0.375 0.75,-2.0625 -0.75,-4.875 v -1.125 z m 3.375,1.3125 v 0.375 h -0.1875 q 0.1875,2.25 0.75,2.25 l 0.375,-0.375 -0.1875,-0.9375 0.375,-0.375 -0.9375,-0.9375 z m 6.9375,3.5625 q 3.375,0 3.375,1.6875 v 0.1875 l -0.1875,1.125 0.1875,0.5625 q -0.28125,0.75 -0.5625,0.75 h -1.5 l -0.1875,-0.9375 0.1875,-1.3125 q -0.51562,0 -1.3125,-1.875 z m 4.875,12 0.75,0.1875 v 0.375 l -0.375,0.375 q -0.9375,-0.234375 -0.9375,-0.5625 v -0.1875 z m -3.1875,0.375 0.75,0.1875 v 0.1875 q 0,0.375 -2.625,0.75 v -0.1875 q 0,-0.421875 1.875,-0.9375 z m 7.125,0.1875 0.375,0.375 -0.1875,0.1875 v 0.1875 l -0.5625,-0.1875 v -0.1875 z m -1.125,0.1875 h 0.5625 l 0.1875,0.9375 h -0.5625 z m 2.25,0.1875 h 0.5625 l -0.375,0.375 h -0.1875 z" stroke-width="0" stroke-linejoin="miter" stroke-miterlimit="2" fill="#83c7f5" stroke="#83c7f5" transform="translate(0 270.046796875) translate(559.05078125 47.05859375) scale(1.25) translate(-554.70312 61.078125)"></path>
        <path id="path333768" style="font-style:normal;font-weight:400;font-size:72px;line-height:1;font-family:Boycott;font-variant-ligatures:none;text-align:center;text-anchor:middle" d="m 602.51562,-60.328125 0.1875,0.1875 2.25,-0.1875 q 2.25,-0.1875 2.25,0.75 v 0.375 q -0.9375,0 -0.9375,1.6875 l 0.1875,0.1875 h 0.1875 q 1.73438,-2.0625 2.0625,-2.0625 2.76563,0.46875 5.8125,3 l 0.9375,0.375 0.375,-0.375 2.25,0.75 v 0.375 h -0.375 q 0,0.65625 0.5625,1.125 l 0.5625,-0.375 q 0.9375,0.234375 0.9375,0.5625 -1.5,0.140625 -1.5,1.5 v 0.1875 l 1.125,0.1875 v 0.375 q -2.0625,0.46875 -2.0625,0.75 l 0.75,0.75 v 0.75 h -0.1875 l -0.5625,-0.1875 q -2.25,0.28125 -2.25,1.125 v 0.75 q 0,0.421875 0.9375,0.5625 0,-0.5625 2.0625,-0.9375 l 0.375,0.375 h 0.1875 l 0.5625,-0.375 0.375,0.375 -1.5,1.125 q 0.1875,0.65625 1.125,1.5 l -0.1875,0.75 0.9375,-0.1875 0.1875,0.1875 v 1.6875 h 0.75 v 0.75 h -1.3125 l -0.375,0.375 v 0.1875 l 0.75,0.1875 q 0,1.59375 -2.25,2.0625 l -0.375,-0.75 h -0.1875 q 0,0.75 -0.9375,0.75 h -1.6875 l -0.9375,-0.1875 -1.125,0.1875 h -2.25 l -0.9375,-0.1875 v -1.5 l 0.375,-1.3125 -0.375,-0.375 v -0.375 h 0.5625 q 0.375,0 0.375,0.5625 l 0.5625,0.1875 v -0.5625 q 0,-0.375 -1.5,-1.3125 l 0.1875,-0.1875 v -0.375 l -0.5625,-1.875 h 0.1875 l -0.5625,-2.625 q -0.51562,0 -0.9375,-0.9375 -0.70312,0 -1.3125,-1.125 l -3,-0.1875 q -0.75,0.234375 -1.125,0.9375 l -0.1875,-0.1875 h -0.1875 q -1.6875,0.796875 -1.6875,1.3125 h 0.375 v 0.375 q -0.5625,0 -0.9375,0.75 l 0.375,0.375 -0.1875,0.9375 v 0.1875 l 0.1875,0.1875 -0.5625,0.9375 0.1875,0.1875 -0.1875,0.5625 h -0.1875 l -0.1875,-0.1875 h -0.1875 l -0.1875,0.1875 v 0.5625 l 0.5625,-0.375 q 0.375,0 0.375,0.5625 l 0.1875,0.1875 h 0.1875 l 0.9375,-0.1875 v 0.5625 q -1.125,0.984375 -1.5,1.875 v 0.5625 l 0.375,0.75 -0.1875,2.25 0.5625,0.375 -0.1875,0.9375 v 0.1875 l 0.1875,1.3125 -0.75,0.375 v 0.375 q 0.5625,0 0.5625,0.375 l -0.5625,0.1875 v 0.75 q 0,0.375 1.125,0.75 v 0.1875 l -0.75,0.375 0.1875,1.125 h 0.1875 l 0.9375,-0.1875 2.625,0.375 0.5625,-0.5625 1.125,0.5625 -0.5625,1.5 v 0.375 h 0.5625 v 0.375 h -0.375 q -0.5625,0 -0.5625,-1.3125 h -0.5625 l -0.1875,0.1875 h -0.1875 l 0.5625,1.5 -0.9375,-0.1875 -0.75,0.5625 q -1.5,-0.1875 -1.5,-0.5625 v -0.375 q 0,-0.375 0.5625,-0.375 v -0.5625 h -0.375 l -0.75,0.5625 h -0.1875 l -0.5625,-0.375 -0.375,0.375 q 0.5625,0.140625 0.75,0.75 l -0.1875,0.1875 v 0.1875 l 0.1875,0.75 -0.375,0.375 q 0,0.375 1.125,0.375 l -0.75,1.3125 0.75,0.1875 v 0.1875 q -0.1875,0.5625 -1.125,0.5625 v 0.5625 h 0.9375 l -0.1875,0.1875 v 0.1875 l -0.9375,-0.1875 h -0.1875 q 0,0.5625 -0.375,0.5625 h -0.1875 l -0.9375,-0.5625 0.1875,-0.9375 v -1.125 q -0.75,0 -0.75,-0.5625 l -0.5625,-0.1875 -1.6875,0.5625 v -0.1875 q 0,-0.75 -0.9375,-0.75 l -0.9375,0.1875 -0.1875,-0.5625 h -0.5625 l -0.75,0.1875 q -1.125,0 -1.125,-0.9375 l -0.1875,-0.5625 h 0.1875 q 0.5625,0 0.5625,-0.375 0,-0.375 -0.9375,-0.375 v -0.375 l 0.1875,-0.1875 -0.1875,-0.1875 v -0.1875 l 0.1875,-1.5 -0.1875,-0.75 0.1875,-0.1875 v -0.1875 l -0.1875,-1.125 q 0,-0.984375 1.125,-1.6875 v -0.5625 l -1.125,-0.375 0.5625,-1.3125 v -0.375 l -0.75,-0.375 q 0,-1.6875 1.3125,-1.6875 v -0.75 h -0.1875 l -0.9375,0.1875 v -0.1875 l 0.375,-0.375 -0.375,-2.0625 q 0.79688,-0.46875 1.125,-1.3125 l -0.375,-1.125 v -0.1875 q 0.5625,-0.796875 0.5625,-1.5 l -0.75,-0.5625 0.1875,-0.5625 -0.1875,-1.125 v -0.1875 q 0.51563,0 1.875,-0.9375 h 0.1875 v -0.5625 q -1.125,-0.984375 -1.125,-1.875 0.375,0 0.375,-0.5625 l -0.1875,-0.5625 q 0.42188,-0.04687 3.75,-3.1875 2.10938,-2.015625 7.125,-3 z m 2.4375,1.5 v 0.1875 l 0.375,0.375 0.375,-0.375 v -0.375 h -0.1875 z m 3.9375,1.3125 q 1.3125,1.546875 1.3125,2.25 h 0.1875 l 0.5625,-0.5625 v -0.1875 q 0,-0.375 -0.5625,-0.375 l 0.1875,-0.9375 q 0,-1.125 -0.75,-1.125 -0.9375,0.328125 -0.9375,0.9375 z m -7.3125,-0.1875 v 0.75 h 0.1875 l 0.375,-0.375 -0.375,-0.375 z m -7.125,1.875 v 0.5625 h 0.5625 v -0.5625 z m 9.5625,1.6875 v 0.1875 h 0.5625 l 0.375,-0.375 v -0.375 h -0.375 z m 16.6875,0 h 0.5625 v 0.375 h -0.1875 z m -18.1875,0.5625 v 0.75 l 0.375,0.375 q 0.75,-0.28125 0.75,-0.5625 v -0.375 z m 7.6875,2.25 -0.1875,1.3125 v 0.375 l 0.1875,0.9375 h 0.1875 l 0.5625,-0.375 0.375,0.5625 v 0.1875 l -0.1875,0.1875 v 0.1875 h 0.375 l 0.1875,-0.75 h 0.375 l 0.375,0.375 v 0.1875 q 0,0.46875 -2.25,1.125 l 0.1875,0.5625 0.9375,-0.1875 1.875,0.1875 0.5625,-0.1875 v -0.375 l -0.375,-0.5625 0.1875,-1.3125 q -0.51562,0 -1.125,-2.0625 -0.5625,0 -0.5625,-0.375 l -0.9375,0.1875 z m -2.25,0.375 v 0.1875 l 0.375,0.5625 0.5625,-0.1875 v -0.375 l -0.375,-0.375 z m 5.8125,2.0625 h 0.5625 v -0.375 h -0.1875 z m 0.9375,2.8125 0.375,0.375 h 0.375 v -0.75 h -0.375 z m -3.9375,0.375 v 0.1875 l 1.6875,0.375 0.375,-0.5625 -0.375,-0.5625 q -1.6875,0.234375 -1.6875,0.5625 z m -20.625,-0.375 h 0.1875 v 0.375 h -0.5625 z m 22.3125,1.5 v 0.5625 q 1.5,0.375 1.5,0.9375 h 0.1875 l 0.1875,-0.1875 0.1875,0.1875 h 0.1875 l 0.5625,-0.5625 h 0.1875 q 0,-1.125 -2.0625,-1.125 v -0.1875 z m -2.0625,0.5625 0.1875,0.1875 h 0.1875 l 0.1875,-0.1875 v -0.375 h -0.1875 z m -14.4375,0 v 0.5625 l 0.375,0.375 0.375,-0.375 -0.1875,-0.5625 z m 15.375,0 0.375,0.375 h 0.375 v -0.375 z m -14.8125,1.6875 v 0.375 l 0.375,0.375 0.1875,-0.1875 v -0.1875 l -0.375,-0.375 z m 14.4375,0.1875 v 0.1875 l 0.1875,0.75 -0.1875,0.75 h 0.375 l 0.375,-1.5 -0.1875,-0.1875 z m 6.5625,0.75 0.5625,0.375 h 0.375 l 0.5625,-0.5625 -0.1875,-0.1875 h -0.9375 z m -5.0625,-0.1875 v 0.375 h 0.1875 l 0.375,-0.375 z m 8.625,0.1875 h 0.9375 l 0.1875,0.5625 h -0.1875 l -0.9375,-0.375 z m -28.875,0.5625 v 0.375 l 0.75,0.1875 v -0.375 z m 3.75,6.75 v 0.75 h 0.5625 l 0.375,-0.375 v -0.375 z m 4.3125,2.25 0.9375,0.1875 -0.375,0.375 h -0.1875 l -0.375,-0.375 z m 1.6875,3 0.375,0.375 h 0.1875 l 0.1875,-0.1875 h 0.1875 l -0.1875,-0.5625 h -0.375 z m -1.125,2.25 h 0.5625 l 0.1875,0.1875 0.1875,-0.1875 h 1.3125 v 0.1875 q 0,0.375 -1.875,0.5625 l -0.375,-0.5625 z m -3.1875,4.6875 0.1875,0.1875 v 0.75 l -0.5625,0.5625 h -0.5625 v -0.375 z m 12.1875,0 0.75,0.1875 v 1.125 q 0,0.5625 0.75,0.5625 0.5625,0 0.5625,-0.75 h 0.1875 l -0.1875,-0.1875 v -0.1875 q 0,-0.984375 2.8125,-0.75 l 2.4375,0.1875 0.5625,-0.1875 1.6875,0.5625 h 0.1875 l 0.1875,-0.1875 0.1875,0.1875 h 1.3125 v 0.5625 h -0.9375 l -1.125,0.75 v 0.375 l 0.5625,0.75 q 0,0.375 -0.5625,0.375 v 0.5625 l 0.1875,0.1875 -0.75,1.875 v 0.5625 l 0.375,0.5625 v 0.375 q -0.5625,0 -0.5625,1.3125 0.70313,0.04687 1.125,0.75 v 0.1875 q -0.9375,0 -0.9375,0.375 v 0.375 q 0,0.375 0.5625,0.375 l 0.1875,0.1875 v 0.1875 l -0.75,0.75 v 0.1875 q 0.75,0.09375 0.75,0.5625 -0.375,0 -0.75,1.125 -1.125,0 -1.125,0.375 v 0.375 l 0.1875,0.5625 h -0.1875 q -0.89062,0 -2.0625,2.4375 -3.04687,3.140625 -4.125,3.5625 -2.39062,1.5 -8.0625,1.5 l -1.125,-0.375 h -1.125 v -0.1875 l 0.375,-0.5625 v -0.375 h -0.5625 l -0.1875,0.5625 0.1875,0.1875 -0.1875,0.1875 h -0.75 q -1.40625,-0.703125 -2.0625,-1.5 l -0.1875,0.1875 h -0.1875 l -1.125,-1.125 q -0.9375,0 -0.9375,-1.3125 l -0.1875,-0.1875 h -0.375 l -0.1875,0.1875 q -2.8125,-1.96875 -2.8125,-3.75 h 0.375 v -0.375 q -1.26562,0 -1.6875,-2.625 1.5,-0.46875 1.5,-1.6875 h 0.375 v -0.5625 l -0.1875,-0.1875 0.5625,-2.25 0.1875,0.1875 h 0.375 l 0.375,-0.375 v -0.9375 l -0.1875,-0.1875 q 0.28125,-2.0625 0.75,-2.0625 h 0.375 q 0.14063,0.9375 0.5625,0.9375 h 0.1875 l 0.375,-0.375 q 0,-0.375 0.5625,-0.375 l 0.75,-0.1875 v -0.5625 l 0.9375,0.1875 0.5625,-0.1875 q 0,1.125 0.75,1.125 v 0.5625 l 0.1875,1.3125 -0.9375,0.1875 q -0.75,0 -0.75,-1.3125 -1.03125,0 -1.875,-0.5625 l -0.1875,0.75 h -0.375 v -0.375 l -0.9375,0.1875 v 0.1875 l 0.375,0.5625 -0.375,0.5625 v 0.1875 q 0.98438,0 1.6875,-0.5625 h 0.375 q 0.14063,0.9375 0.5625,0.9375 h 2.0625 l 0.1875,0.75 -0.1875,0.1875 v 0.1875 l 0.1875,0.5625 -0.1875,0.75 0.75,2.0625 -0.5625,0.1875 v 0.5625 l 0.375,0.375 h 0.1875 l 0.1875,-0.75 q 2.34375,1.5 3.5625,1.5 h 2.8125 q 0,-0.328125 1.875,-1.6875 l 0.375,-0.9375 h 0.375 q 0.9375,0 0.9375,0.375 0.84375,-0.375 0.9375,-0.75 l -0.375,-0.375 -1.6875,0.375 0.5625,-2.25 -0.1875,-0.75 h 0.1875 l -0.1875,-0.1875 v -2.25 l 0.375,-1.125 -0.1875,-0.5625 0.375,-0.375 -0.1875,-0.1875 v -0.1875 l 0.1875,-0.75 -0.5625,-0.5625 v -0.375 z m -14.625,1.5 0.9375,0.1875 h 0.5625 v 0.1875 l -0.375,0.375 h -0.5625 l -0.5625,-0.5625 z m 16.3125,0.9375 v 0.1875 l 0.5625,0.1875 0.1875,-0.1875 v -0.1875 l -0.375,-0.375 z m -0.5625,0.5625 -0.375,0.75 v 0.1875 h 0.5625 l 0.375,-0.375 v -0.1875 l -0.375,-0.375 z m 3.75,0 v 0.5625 h 0.5625 l 0.375,-0.375 v -0.1875 z m -2.4375,0.1875 0.1875,0.9375 q -0.9375,0.28125 -0.9375,1.125 h -0.1875 l 0.1875,0.1875 v 0.1875 l -0.1875,0.75 0.5625,0.9375 q 0.75,-0.28125 0.75,-0.5625 -0.5625,-0.703125 -0.5625,-1.3125 l 0.1875,-0.5625 h 0.75 l 0.5625,0.375 h 0.1875 q 0,-0.5625 0.5625,-0.5625 v -0.1875 q 0,-0.984375 -0.5625,-1.125 l -0.1875,0.1875 v 0.1875 l 0.375,0.375 h -0.5625 q 0,-0.9375 -0.9375,-0.9375 z m -21.375,0 h 0.375 l 0.375,0.375 -0.375,0.75 0.5625,1.875 q -0.28125,0 -0.75,1.3125 l -0.9375,0.1875 -0.1875,-1.3125 v -0.375 l 0.5625,-0.5625 -0.1875,-1.125 z m 21.9375,4.5 0.1875,0.1875 0.1875,-0.1875 h 0.9375 v 0.375 h 0.375 l 0.75,-0.375 q 0.75,0 0.75,1.125 l 0.9375,-0.1875 v -0.5625 l -0.9375,-0.1875 0.1875,-0.5625 -0.375,-0.5625 h -0.375 l -0.5625,0.1875 v -0.1875 l -0.375,-0.375 v -0.1875 z m -21.9375,2.0625 h 0.5625 v 0.5625 h -0.1875 l -0.375,-0.375 z m 19.5,1.6875 v 0.1875 l 0.375,0.375 0.1875,-0.1875 v -0.375 z m 0.5625,2.625 0.1875,1.875 v 0.5625 h 0.5625 l 0.1875,-0.5625 h -0.1875 q 0,-0.75 0.75,-0.75 v -0.5625 q -0.9375,0 -0.9375,-0.5625 v -0.1875 h -0.1875 l -0.1875,0.1875 z m -5.625,0.1875 -0.1875,0.1875 v 0.375 h 0.1875 l 0.375,-0.375 -0.1875,-0.1875 z m -2.25,0.1875 -0.1875,0.1875 v 0.1875 l 0.1875,0.1875 h 0.1875 l 0.1875,-0.1875 h 0.1875 l 0.9375,0.1875 0.1875,-0.1875 v -0.1875 z m 4.3125,0.375 v 0.1875 h 0.375 v -0.5625 z m 1.125,-0.1875 v 0.375 l 0.375,0.375 h 0.5625 v -0.375 l -0.375,-0.375 z m 6,0.375 v 0.75 h 0.375 v -0.75 z m -9.1875,1.3125 v 0.5625 l 0.9375,0.5625 h 0.1875 l 0.1875,-1.125 -0.1875,-0.1875 h -0.1875 z m 5.4375,1.125 -0.375,0.5625 0.5625,0.375 h 0.1875 l 0.375,-0.375 v -0.375 z m -2.25,0.375 v 0.375 l 0.375,0.375 h 0.375 l -0.5625,-0.75 z m -11.625,1.3125 0.1875,0.1875 h 0.1875 q 0.1875,-0.5625 1.125,-0.5625 v -0.1875 q 0,-0.375 -0.5625,-0.375 -0.51562,0 -0.9375,0.9375 z m 4.6875,1.3125 0.375,0.375 h 0.1875 v -0.375 z m 3.75,0 v 0.5625 h 0.5625 v -0.5625 z m -25.6875,10.3125 0.1875,0.1875 v 0.1875 l -0.9375,0.375 -0.1875,-0.1875 v -0.375 z" stroke-width="0" stroke-linejoin="miter" stroke-miterlimit="2" fill="#6bbdf3" stroke="#6bbdf3" transform="translate(0 270.046796875) translate(589.05078125 47.95703125) scale(1.25) translate(-578.70312 60.359375)"></path>
        <path id="path333770" style="font-style:normal;font-weight:400;font-size:72px;line-height:1;font-family:Boycott;font-variant-ligatures:none;text-align:center;text-anchor:middle" d="m 622.76562,-61.5 h 0.1875 l 0.375,1.3125 -0.1875,0.1875 h -0.75 q -0.5625,-0.1875 -0.5625,-1.125 v -0.1875 z m -2.25,1.125 0.375,0.375 -1.3125,1.125 h -0.375 l -0.375,-0.375 0.1875,-0.1875 q 0.5625,0 0.5625,-0.75 z m 40.125,0 0.375,0.375 v 0.1875 h -0.375 l -0.375,-0.375 0.1875,-0.1875 z m -4.6875,0.375 1.875,0.1875 -0.1875,0.5625 q 0.32813,0.9375 0.9375,0.9375 v 0.9375 q 0,0.9375 2.0625,0.9375 l 0.1875,0.1875 v 0.375 l -0.9375,1.125 0.375,0.375 -0.375,0.375 q -0.60937,-1.125 -2.0625,-1.125 v 0.375 q 0.1875,0.65625 1.6875,1.6875 v 0.375 q 0.5625,0 0.5625,0.375 -0.9375,0.140625 -0.9375,0.5625 V -51 h 0.5625 l 0.9375,0.1875 v 0.5625 q -1.3125,0.234375 -1.3125,0.75 v 0.375 h 1.125 l 0.75,0.375 v 1.3125 q -0.75,0 -1.5,1.875 v 0.375 q 0.5625,0 0.5625,0.375 l -0.375,0.375 -0.5625,-0.375 -0.1875,0.1875 v 0.375 q 0.46875,0 1.5,1.125 v 0.1875 l -0.1875,0.1875 v 0.1875 l -0.1875,-0.1875 h -0.5625 l -0.1875,1.3125 v 0.375 h -0.1875 q -1.5,-1.5 -2.25,-1.5 -0.1875,0.609375 -0.75,0.75 v -1.125 l 0.5625,-0.75 v -0.375 q 0,-0.375 -1.875,-0.75 l -1.875,0.1875 h -4.5 v 0.375 q 0,0.703125 2.0625,1.125 v 0.375 q -0.70312,0 -1.5,0.9375 h -0.1875 q -0.84375,-0.421875 -1.5,-2.8125 -0.98437,-0.5625 -2.25,-0.5625 l -0.75,0.375 -0.1875,-0.1875 -0.1875,0.1875 V -45 l -0.1875,0.1875 h -0.1875 l -1.125,-0.1875 -3,0.375 -1.125,-0.1875 -0.1875,0.1875 h -0.1875 l -1.5,-0.1875 -2.25,0.5625 -0.9375,-0.1875 -1.6875,1.6875 v 0.5625 l 0.1875,0.1875 h 0.1875 q 0.65625,0 1.6875,-1.875 h 0.375 v 0.9375 h -0.375 l 0.375,2.0625 h -0.75 l -0.5625,-0.375 -0.1875,0.1875 v 0.9375 h 0.375 v 0.1875 l 0.1875,-0.1875 h 0.75 l 0.1875,1.3125 q -0.1875,0.984375 -1.6875,1.5 -0.46875,1.6875 -1.125,2.25 l 0.375,0.75 q -0.9375,0 -0.9375,0.375 0,0.84375 0.9375,1.875 v 0.1875 l -1.125,-0.375 v 0.5625 q 1.35938,2.25 4.125,2.25 0.23438,0.5625 4.125,1.875 0.0937,0.75 0.5625,0.75 h 0.5625 l 0.1875,-0.1875 0.1875,0.1875 h 0.5625 l 0.5625,-0.375 1.875,0.75 0.5625,-0.5625 h 0.1875 l -0.375,-1.125 V -28.5 l 1.6875,0.5625 1.5,-0.9375 h 0.375 l 1.125,0.5625 v 0.1875 l -0.1875,0.9375 q 1.3125,0 1.3125,1.6875 h 0.1875 l 0.1875,-0.1875 h 0.1875 l -0.1875,-0.1875 v -0.5625 l 0.75,-0.5625 -0.375,-1.125 1.125,-1.3125 q -0.23437,-0.75 -1.6875,-0.75 l 0.9375,-0.9375 0.75,0.1875 q 0.89063,-0.5625 2.0625,-0.5625 l 0.9375,0.1875 0.1875,-0.1875 v -0.375 l -0.1875,-0.9375 q 1.6875,-0.234375 1.6875,-1.3125 h 0.1875 l 0.75,0.5625 0.75,-0.5625 V -34.5 q -0.75,0 -0.75,-0.9375 0.75,-0.375 0.75,-0.9375 l 0.75,0.1875 0.75,-0.1875 0.1875,0.1875 V -36 l 0.75,-0.5625 V -36.75 q -0.1875,-0.5625 -1.125,-0.5625 V -37.5 l 0.375,-0.5625 -0.375,-0.375 -0.75,0.1875 q -0.75,-0.1875 -0.75,-0.75 0.14063,-0.5625 1.125,-0.9375 1.125,0 1.125,1.125 h 0.375 l 0.75,-0.5625 h 0.1875 v 0.5625 q -0.9375,0.65625 -0.9375,1.125 0.23438,0.796875 1.3125,1.6875 l 0.1875,1.875 q -0.5625,0 -0.5625,0.375 v 0.375 q 0.32813,0.75 1.3125,0.75 h 0.5625 v 0.375 q -0.375,0.46875 -0.5625,1.875 h -0.375 l -0.375,0.5625 0.375,0.5625 -0.9375,1.125 0.1875,0.1875 h 0.1875 l 0.9375,-0.375 0.1875,0.1875 v 0.1875 q -0.1875,0.5625 -1.125,0.5625 h -0.5625 l -0.5625,-0.375 h -0.5625 l 0.1875,0.9375 h -0.1875 l -0.9375,0.1875 -0.75,-0.1875 q -0.75,0 -0.75,1.3125 h -0.375 l -0.375,4.125 0.375,0.9375 -0.1875,0.1875 v 0.1875 l 0.1875,0.9375 -0.1875,0.9375 h 0.375 V -18 l 0.1875,-0.1875 h 0.375 l 0.375,0.375 q -1.125,0.421875 -1.125,0.75 v 0.375 q 0.375,0 0.375,0.75 l 0.5625,0.1875 q -0.32812,0.9375 -0.9375,0.9375 v 0.5625 h 0.9375 v 0.375 l -0.1875,0.1875 q 0,0.75 1.125,0.75 l 0.1875,0.75 -0.1875,0.1875 -0.75,-0.375 -0.75,0.1875 v 0.5625 l 1.5,0.1875 q -0.75,0.796875 -0.75,1.5 0.75,0 0.75,0.375 l -0.375,0.5625 0.1875,0.1875 q -0.1875,1.6875 -0.5625,1.6875 l 0.5625,1.3125 -0.75,0.375 -0.5625,-0.1875 q -0.5625,0.703125 -0.5625,1.3125 v 3 l 0.1875,1.875 h -5.0625 q -0.375,0 -0.5625,-1.875 l 0.1875,-0.75 -0.1875,-0.1875 h -0.375 l -0.5625,0.5625 0.1875,0.1875 v 0.1875 l -0.1875,0.1875 h 0.1875 l -0.1875,0.1875 v 0.75 L 650.70312,0 v 0.1875 l -0.375,0.375 -0.75,-0.375 -1.125,0.375 q -0.60937,0 -0.5625,-3 0,-1.3125 0.375,-1.3125 l -0.1875,-0.1875 V -5.625 q 0,-0.703125 0.9375,-1.6875 V -7.5 q -0.5625,0 -0.5625,-0.375 v -0.1875 q 1.125,-0.1875 1.125,-0.5625 L 649.20312,-9 v -0.1875 h 0.375 v -0.375 h -0.375 l -0.375,0.375 0.1875,0.1875 -0.1875,0.1875 h -0.5625 l -0.375,-0.375 v -0.75 l 0.1875,-0.75 -0.1875,-0.75 h 0.375 l 0.1875,0.1875 h 0.1875 v -0.5625 h -0.75 v -1.5 h 0.1875 l 0.1875,0.1875 h 0.1875 l -0.1875,0.1875 v 0.375 l 0.375,0.375 0.5625,-0.9375 v -0.1875 h -0.5625 V -13.5 l 0.1875,-0.9375 -1.125,-1.125 0.1875,-0.1875 h 0.1875 l 0.375,0.375 0.1875,-1.875 h -0.5625 l 0.1875,-0.9375 -0.375,-0.375 v -1.5 l -0.1875,-0.75 q 0.23438,-2.8125 1.125,-2.8125 v -0.5625 l -2.25,-0.75 -0.375,0.9375 h -0.375 v -0.5625 l -3,-0.1875 -5.25,0.1875 -0.375,1.6875 0.1875,0.9375 v 0.5625 l -0.1875,4.125 0.375,0.375 v 0.375 h -0.375 v 0.5625 h 0.1875 v -0.375 h 0.375 q 0.46875,0 0.75,1.5 0,0.515625 -1.5,2.0625 v 0.5625 l 0.5625,0.75 -0.5625,0.5625 0.1875,0.1875 h 3.5625 v 0.5625 l -0.375,0.375 -0.1875,-0.1875 -0.5625,1.5 V -8.25 l 0.375,0.5625 v 0.375 q -1.3125,0.375 -1.3125,0.75 v 0.375 l 1.125,0.5625 0.75,-0.1875 v 0.375 q 0,0.5625 -2.625,0.9375 v 0.75 l 0.5625,0.1875 1.125,-0.1875 v 0.375 l -1.875,0.375 v -0.1875 q -0.75,0.28125 -0.75,0.5625 l 0.1875,0.1875 -0.1875,0.1875 V 0 l -0.5625,0.5625 h -1.125 V 0.375 l 0.1875,-0.5625 h -0.5625 l -0.5625,-0.1875 v 0.1875 q 0,0.75 -0.375,0.75 h -0.75 q -0.9375,0 -0.9375,-0.375 l -0.1875,0.1875 h -0.5625 l 0.1875,-0.1875 V -0.375 l -0.5625,-0.1875 0.1875,-0.75 q -0.28125,-0.75 -0.5625,-0.75 h -0.375 q 0,0.75 -0.9375,0.75 v 0.375 l 0.5625,0.75 v 0.375 h -0.1875 q -0.65625,-0.5625 -1.5,-0.5625 l -0.5625,-3.1875 0.5625,-0.375 q 0,0.375 0.5625,0.375 l 1.3125,-0.1875 v -0.1875 q -0.70312,0 -1.6875,-0.9375 h -0.5625 V -9 l -0.1875,-0.75 0.375,-1.3125 -0.375,-0.375 v -0.1875 h 0.375 l -0.1875,-0.9375 0.375,-0.375 -0.5625,-0.1875 0.1875,-0.1875 v -0.75 l -0.1875,-0.1875 0.375,-1.6875 -0.375,-0.5625 q 0,-1.078125 1.5,-2.0625 v -0.375 h -0.1875 l -0.5625,0.375 h -0.5625 V -20.25 q 0,-1.3125 -0.375,-1.3125 l 0.375,-0.75 -0.1875,-0.1875 q 0,-2.4375 1.3125,-2.4375 l 0.375,-0.375 q -1.07812,-0.234375 -1.875,-0.9375 V -27 l 0.375,-1.3125 -0.1875,-2.25 h 0.375 l -0.375,-1.5 v -2.25 l 0.1875,-1.125 -0.1875,-0.5625 0.375,-0.9375 -0.5625,-0.5625 1.3125,-0.375 -0.5625,-2.0625 -0.1875,0.1875 h -0.5625 v -1.6875 h 0.1875 l 0.5625,0.375 v -0.75 q -0.5625,0 -0.5625,-0.375 V -42.75 l 0.1875,-0.1875 -0.375,-0.5625 0.1875,-0.5625 -0.375,-1.5 0.1875,-0.5625 -0.375,-0.75 0.1875,-2.25 -0.375,-0.5625 0.375,-0.375 -0.1875,-0.9375 0.75,-0.1875 V -51.75 l -0.5625,-0.1875 0.1875,-0.9375 -0.375,-2.0625 0.5625,-2.25 -0.5625,-0.75 0.1875,-0.1875 h 0.375 v 0.375 h 0.375 v -0.5625 l -0.375,-0.5625 0.1875,-0.1875 h 0.5625 l 0.1875,0.1875 0.1875,-0.1875 h 1.125 l 0.9375,0.1875 1.125,-0.1875 h 0.375 l 0.9375,0.1875 1.125,-0.1875 h 1.125 l 2.4375,0.75 v 0.5625 h -1.125 v 0.5625 q 1.3125,0.1875 1.3125,0.5625 -1.59375,1.078125 -1.6875,2.625 -0.0469,0.5625 1.6875,2.4375 l -0.1875,1.5 h -0.1875 l -0.9375,-0.1875 -0.1875,0.9375 0.1875,0.1875 h 1.125 v 0.375 q -0.5625,0 -0.5625,0.9375 0,0.5625 1.5,0.5625 v 0.75 h -0.375 v 0.1875 q 0,0.515625 2.625,1.125 0,-0.375 0.5625,-0.375 l 1.6875,0.1875 0.375,-0.375 1.5,0.1875 q 0.1875,-0.609375 0.75,-0.75 l 1.125,0.1875 v -5.625 l 0.1875,-1.6875 -0.1875,-0.1875 v -0.1875 l 0.1875,-0.9375 -0.1875,-0.1875 0.375,-3.1875 -0.1875,-0.9375 1.3125,-0.1875 h 2.4375 l 0.75,-0.1875 0.1875,0.1875 h 0.1875 z m -34.125,0.9375 0.5625,0.1875 v 0.9375 l -1.3125,-0.375 z m 38.625,0.1875 q 0.65625,0.5625 2.0625,0.5625 l 0.1875,0.1875 v 0.375 h -1.5 q -0.98437,0 -1.125,-0.5625 z m -30,2.0625 v 0.5625 h 0.375 v -0.1875 z m 1.3125,1.125 v 0.9375 h 0.375 l 0.1875,-0.1875 h 0.1875 l -0.1875,-1.125 h -0.1875 z m -8.8125,-0.1875 h 0.375 v 0.5625 h -0.375 z m 19.6875,4.5 0.9375,0.1875 V -51 l -0.375,0.375 h -0.1875 l -0.75,-0.375 z m 6,4.3125 -0.1875,0.1875 v 0.1875 l 0.1875,0.1875 h 0.1875 l 0.1875,-0.1875 v -0.1875 l -0.1875,-0.1875 z m -13.125,1.5 v 0.375 h 0.1875 l 0.375,-0.375 z m 22.6875,0 -0.1875,0.1875 v 0.1875 l 0.375,0.375 h 0.1875 v -0.375 z m -27.1875,1.125 0.375,0.375 h 0.1875 l -0.375,-0.375 z m 27.1875,0.75 V -43.5 h 0.1875 l 0.375,-0.375 v -0.1875 h -0.1875 z m -7.3125,0.5625 h 0.1875 q 2.4375,0.421875 2.4375,0.9375 l -0.5625,0.5625 h -0.375 q 0,-0.796875 -1.5,-0.9375 l -0.1875,-0.1875 z m 8.4375,9.5625 V -33 l 0.9375,0.1875 V -33 l -0.1875,-0.9375 h -0.375 z m 5.25,0.75 q 0.60938,0.515625 3.1875,0.75 l 0.375,0.5625 v 0.1875 l -0.1875,-0.1875 -1.3125,0.1875 h -0.75 v 0.5625 l 0.1875,0.1875 v 0.1875 l -0.1875,0.1875 h -0.1875 l -1.3125,-2.4375 z m 2.625,2.25 0.1875,0.1875 v 0.1875 l -0.375,0.375 h -0.1875 v -0.375 z m -24.1875,0.1875 h 0.1875 l 0.375,0.375 v 0.375 h -0.5625 z m 17.25,1.6875 V -28.5 l 0.375,0.375 h 0.1875 v -0.5625 z m -8.0625,1.6875 -0.375,0.5625 0.1875,0.1875 v 0.1875 l 0.75,-0.375 v 0.375 h 0.9375 V -26.25 Z m -12,0.9375 0.375,0.375 h 0.375 l -0.375,-0.375 z m 1.125,0.375 0.1875,0.1875 h 0.1875 l 0.375,-0.375 v -0.1875 h -0.375 z m 9.375,-0.1875 q 0.14063,1.5 0.5625,1.5 h 0.375 q 0,-1.40625 -0.5625,-1.5 z m -0.9375,1.875 v 0.5625 l 0.75,0.1875 0.9375,-0.1875 v -0.1875 l -0.375,-0.375 z m 2.0625,0.375 v 0.1875 h 0.5625 v -0.375 z m -23.25,12.5625 V -10.5 l 1.3125,0.1875 v -0.5625 l -0.9375,-0.1875 z m 10.3125,0.75 v 0.375 h 0.5625 v -0.375 z m -9.1875,1.875 q 0,0.515625 -0.9375,0.9375 v 0.1875 l 0.9375,0.1875 0.1875,-0.1875 0.1875,0.1875 h 0.75 v -0.1875 l -0.75,-1.125 z m 0.75,3.1875 v 0.5625 h 0.375 l 0.375,-0.375 V -5.625 h -0.375 z m 3.9375,0.5625 V -3.75 l 0.75,1.5 h 0.1875 l 0.375,-0.375 q -0.375,-0.375 -0.375,-1.6875 l -0.5625,-0.375 z m 16.3125,0.375 0.1875,0.5625 -0.1875,0.9375 0.1875,0.1875 h 0.1875 l 0.75,-0.9375 q -0.1875,-0.75 -1.125,-0.75 z m 16.875,1.125 h 0.5625 V -3 l -0.375,0.375 -0.1875,-0.1875 z m -35.625,2.625 h 0.75 q 0.375,0 0.375,-0.9375 h 0.9375 v -0.1875 h -1.5 q -0.32812,0 -0.5625,1.125 z" stroke-width="0" stroke-linejoin="miter" stroke-miterlimit="2" fill="#53b2f2" stroke="#53b2f2" transform="translate(0 270.046796875) translate(639.20703125 46.53125) scale(1.25) translate(-618.82812 61.5)"></path>
      </g>
      <image xlink:href="" id="icon" x="0" y="0" style="display: none;"></image>
    </g>
  </g>
</svg>